<?xml version="1.0" encoding="UTF-8"?>
<svg id="uuid-1137f45f-2c88-41de-bbe5-0af631b65a5a" data-name="Capa 2" xmlns="http://www.w3.org/2000/svg" viewBox="0 0 30.86 36.3">
  <g id="uuid-dc21d73f-fc5b-40e2-96ae-df267b776733" data-name="Capa 1">
    <g>
      <circle cx="22.73" cy="2.57" r="2.57" style="fill: #fcf6cc;"/>
      <path d="M21.81,20.31c-.09-.07-.19-.13-.29-.19h0s0,0,0,0c-.03-.02-.07-.04-.1-.06l-1.47-.83-6.07-3.5h0s-.02,0-.02,0l-9.5,16.46-.44.75c-.06.09-.11.18-.16.27h0s0,0,0,0c-.01.03-.03.06-.04.09h0s0,.01,0,.01c-.12.27-.18.57-.18.89,0,1.17.88,2.12,1.97,2.12.65,0,1.22-.34,1.58-.85l.55-.94,2.52-4.37,10.36-2.78c.12-.03.25-.06.37-.1l.11-.03h0c1.43-.53,2.45-1.99,2.45-3.7,0-.76-.2-1.46-.55-2.06-.27-.47-.63-.87-1.05-1.18ZM16.25,24.37l-3.3.89,2.37-4.1,1.21.7,2.89,1.67-3.16.85Z" style="fill: #fcf6cc;"/>
      <path d="M4.56,18.59l.32.89.89-.15.24-.04,4.35-.74-1.86-1.09,3.56-6.17,5.03-1.06h0c.82-.22,1.43-1.01,1.43-1.95,0-1.1-.83-2-1.86-2-.16,0-.32.02-.46.06l-6.68,1.41h-.01s-4.44,7.69-4.44,7.69l-2.05-1.2,1.47,4.11.08.23Z" style="fill: #fcf6cc;"/>
      <polygon points="2.79 14.36 0 19.12 4.24 18.4 2.79 14.36" style="fill: #fcf6cc;"/>
      <polygon points="7.55 23.61 10.37 18.8 6.09 19.52 7.55 23.61" style="fill: #fcf6cc;"/>
      <polygon points="5.85 19.56 4.96 19.71 4.72 19.75 4.64 19.53 4.32 18.63 0 19.36 7.31 23.65 5.85 19.56" style="fill: #fcf6cc;"/>
      <path d="M28.98,5.85c-.7,0-1.32.38-1.64.95-.06.1-.1.2-.14.31h0s-.18.41-.18.41l-1.37,3.07s0,0,0,0h-4.05s0,0,0,0l-2.03,3.65s0,0,0,0h8.54s0,0,0,0v-.03s0,0,0,0c0,0,0,0,0,0l2.16-4.84.49-1.1s0,0,0,0c.05-.17.08-.36.08-.55,0-1.04-.84-1.88-1.88-1.88Z" style="fill: #fcf6cc;"/>
    </g>
  </g>
</svg>