<?xml version="1.0" encoding="UTF-8"?>
<svg id="uuid-23f0d614-e300-49fb-ab7d-56eb3714e0f8" data-name="Capa 2" xmlns="http://www.w3.org/2000/svg" viewBox="0 0 88.45 21.41">
  <g id="uuid-9f4ce582-8bc8-4889-be7c-06c0ccd620cd" data-name="Capa 1">
    <g>
      <path d="M73.95,2.78c0,.93-.75,1.68-1.68,1.68s-1.68-.75-1.68-1.68.75-1.68,1.68-1.68,1.68.75,1.68,1.68h0Z" style="fill: #fdf7cd;"/>
      <path d="M31.8,21.16h-2.16s-.05-.02-.06-.04l-5.9-14.44c-.02-.06-.11-.04-.11.02v14.39s-.03.06-.06.06h-2.61s-.06-.03-.06-.06V1.54s.03-.06.06-.06h3.41s.05.02.06.04l6.3,15.6s.09.05.11,0l6.29-15.6s.03-.04.06-.04h3.45s.06.03.06.06v19.57s-.03.06-.06.06h-2.66s-.06-.03-.06-.06V6.76c0-.07-.09-.08-.11-.02l-5.87,14.39s-.03.04-.06.04h0Z" style="fill: #fdf7cd;"/>
      <path d="M66.02,16.84c-.55-2.44-7.36-.92-8.26-5-1.43-6.53,10.48-7.32,10.93-.94,0,.07-.03.1-.1.1h-2.54c-.06.01-.09-.02-.1-.07-.23-1.16-.91-1.85-2.04-2.08-.98-.2-2.3-.03-2.99.74-1.09,1.21.03,2.56,1.31,2.86,2.97.7,7.08,1.06,6.79,4.85-.29,3.69-4.73,4.54-7.69,3.9-2.31-.49-3.67-1.87-4.08-4.12-.02-.09.02-.13.11-.13h2.72c.06,0,.1.03.11.09.3,1.27,1.14,1.97,2.52,2.09,1.47.13,3.78-.28,3.33-2.28h0Z" style="fill: #fdf7cd;"/>
      <path d="M78.96,16.57c1.21,3.11,5.72,3.29,6.61-.17.02-.09.08-.13.17-.13l2.59.02c.09,0,.13.04.11.13-.47,2.6-1.99,4.19-4.58,4.76-6.49,1.44-9.52-4.58-7.93-10.04.99-3.4,4.12-5.14,7.54-4.53,2.68.48,4.56,2.23,4.93,5.01,0,.07-.02.1-.09.1h-2.57c-.07,0-.12-.04-.14-.11-.53-1.83-1.76-2.71-3.69-2.62-3.4.15-3.91,5.1-2.94,7.58h0Z" style="fill: #fdf7cd;"/>
      <path d="M52.66,18.76c-.69,1.42-1.81,2.27-3.37,2.54-3.95.68-6.07-1.91-6.08-5.61,0-2.93,0-5.87,0-8.8,0-.06.03-.1.1-.1h2.72c.06,0,.1.03.1.1,0,2.54,0,5.08,0,7.62,0,1.6.05,3.51,1.83,4.15,2.37.84,4.58-.73,4.61-3.25.03-2.84.04-5.67.03-8.51,0-.07.03-.1.1-.1h2.78c.06,0,.1.03.1.1v14.19s-.03.08-.08.08h-2.65c-.06,0-.1-.03-.1-.1v-2.29s-.06-.06-.08-.02h0Z" style="fill: #fdf7cd;"/>
      <path d="M73.72,21.09s-.03.07-.07.07h-2.78s-.07-.03-.07-.07V6.86s.03-.07.07-.07h2.78s.07.03.07.07v14.23h0Z" style="fill: #fdf7cd;"/>
      <path d="M13.45.09c.33,2.34-2,4.96-4.34,4.97-.06,0-.09-.03-.1-.09C8.85,2.4,10.89.38,13.33,0c.07,0,.11.02.12.09h0Z" style="fill: #fdf7cd;"/>
      <path d="M9.62,5.92c.77-.19,1.6-.57,2.25-.71,2.01-.41,3.8.15,5.36,1.69.14.14.11.37-.06.47-1.1.63-1.87,1.74-2.06,3.03-.35,2.34.57,4.1,2.76,5.26.06.03.07.08.05.14-.64,1.81-1.6,3.37-2.89,4.69-2.01,2.04-3.4-.07-5.75.05-2.24.12-3.6,1.97-5.7-.32C1.03,17.44-.77,13.03.33,9.27c.69-2.36,2.76-4.26,5.3-4.16,1.29.05,2.71,1.13,3.99.8h0Z" style="fill: #fdf7cd;"/>
    </g>
  </g>
</svg>