<?xml version="1.0" encoding="UTF-8"?>
<svg id="uuid-95c31d45-03a3-4bbd-9293-68debf1102b9" data-name="Capa 2" xmlns="http://www.w3.org/2000/svg" viewBox="0 0 36 36">
  <g id="uuid-2763f544-d625-4694-a8d2-bf549775e962" data-name="Capa 1">
    <path d="M19.56.07C9.66-.79.93,6.54.07,16.44c-.86,9.9,6.47,18.63,16.37,19.49,9.9.86,18.63-6.47,19.49-16.37C36.8,9.66,29.47.93,19.56.07ZM25.51,21.08c-.09,1.04-.96,1.83-1.99,1.83-.06,0-.12,0-.18,0-1.1-.1-1.91-1.07-1.82-2.17l.34-3.86-9.94,8.35c-.38.32-.83.47-1.29.47-.57,0-1.14-.24-1.53-.71-.71-.85-.6-2.11.25-2.82l9.95-8.35-3.86-.34c-1.1-.1-1.91-1.07-1.82-2.17.1-1.1,1.06-1.92,2.17-1.82l8.67.76c1.1.1,1.91,1.07,1.82,2.17l-.76,8.67Z"/>
  </g>
</svg>