<?xml version="1.0" encoding="UTF-8"?>
<svg id="uuid-d0b65afd-6aff-419b-9cbb-8fd1482cd681" data-name="Capa 2" xmlns="http://www.w3.org/2000/svg" viewBox="0 0 52.64 27.69">
  <g id="uuid-23bb0def-cdc6-486a-a4a0-4a98eddf5920" data-name="Capa 1">
    <g>
      <rect x="0" y="11.64" width="1.95" height="4.07" rx=".97" ry=".97" transform="translate(.06 0) rotate(.25)"/>
      <rect x="4.31" y="8.76" width="1.95" height="9.98" rx=".97" ry=".97" transform="translate(.06 -.02) rotate(.25)"/>
      <rect x="8.56" y="10.38" width="1.95" height="6.82" rx=".97" ry=".97" transform="translate(.06 -.04) rotate(.25)"/>
      <rect x="12.66" y="5.2" width="1.95" height="17.12" rx=".97" ry=".97" transform="translate(.06 -.06) rotate(.25)"/>
      <rect x="16.97" y="1.82" width="1.95" height="23.91" rx=".97" ry=".97" transform="translate(.06 -.08) rotate(.25)"/>
      <rect x="21.18" y="8.25" width="1.95" height="11.19" rx=".97" ry=".97" transform="translate(.06 -.1) rotate(.25)"/>
      <rect x="25.37" y="0" width="1.95" height="27.69" rx=".97" ry=".97" transform="translate(.06 -.11) rotate(.25)"/>
      <rect x="29.65" y="8.28" width="1.95" height="11.19" rx=".97" ry=".97" transform="translate(.06 -.13) rotate(.25)"/>
      <rect x="33.81" y="1.9" width="1.95" height="23.91" rx=".97" ry=".97" transform="translate(.06 -.15) rotate(.25)"/>
      <rect x="38.06" y="5.31" width="1.95" height="17.12" rx=".97" ry=".97" transform="translate(.06 -.17) rotate(.25)"/>
      <rect x="42.19" y="10.46" width="1.95" height="6.88" rx=".97" ry=".97" transform="translate(.06 -.19) rotate(.25)"/>
      <rect x="46.41" y="8.95" width="1.95" height="9.98" rx=".97" ry=".97" transform="translate(.06 -.21) rotate(.25)"/>
      <rect x="50.68" y="11.86" width="1.95" height="4.07" rx=".97" ry=".97" transform="translate(.06 -.22) rotate(.25)"/>
    </g>
  </g>
</svg>