<?xml version="1.0" encoding="UTF-8"?>
<svg id="Capa_1" data-name="Capa 1" xmlns="http://www.w3.org/2000/svg" viewBox="0 0 151.98 96.83">
  <defs>
    <style>
      .cls-1 {
        fill: #e9e2b4;
      }
    </style>
  </defs>
  <g>
    <path class="cls-1" d="M125.18,93.17h0s6.64,0,6.64,0h0s-6.64,0-6.64,0ZM19.45,93.17h0s6.64,0,6.64,0h0s-6.64,0-6.64,0Z"/>
    <path class="cls-1" d="M137.99,8.71H13.99c-2.3,0-4.17,1.86-4.17,4.14v54.11c0,2.28,1.87,4.14,4.17,4.14h124.01c2.3,0,4.17-1.86,4.17-4.14V12.85c0-2.28-1.87-4.14-4.17-4.14ZM140.76,66.96c0,1.52-1.24,2.75-2.77,2.75H13.99c-1.53,0-2.77-1.23-2.77-2.75V12.85c0-1.52,1.24-2.75,2.77-2.75h124.01c1.53,0,2.77,1.23,2.77,2.75v54.11Z"/>
  </g>
  <g>
    <path class="cls-1" d="M146.2,0H5.78C2.59,0,0,2.58,0,5.75v83.07c0,3.17,2.59,5.75,5.78,5.75h20.31c.11.49.33.94.66,1.32.52.6,1.26.95,2.03.95h93.72c.77,0,1.51-.35,2.03-.95.33-.38.55-.84.66-1.32h0s21.01,0,21.01,0c3.19,0,5.78-2.58,5.78-5.75V5.75c0-3.17-2.59-5.75-5.78-5.75ZM123.71,94.56h0c-.06.15-.15.29-.26.41-.26.3-.6.46-.96.46H28.78c-.36,0-.7-.16-.96-.46-.11-.12-.19-.26-.26-.41h0c-.13-.29-.17-.63-.11-.96l.07-.43h0s2.91-18.39,2.91-18.39c.12-.74.68-1.28,1.33-1.28h87.75c.65,0,1.21.54,1.33,1.28l2.91,18.39h0s.07.43.07.43c.05.34.01.67-.11.96ZM150.58,88.81c0,2.4-1.97,4.35-4.38,4.35h-14.37s-6.64,0-6.64,0h0s-2.95-18.61-2.95-18.61c-.23-1.43-1.37-2.46-2.72-2.46H31.76c-1.35,0-2.49,1.04-2.72,2.46l-2.95,18.61h0s-6.64,0-6.64,0h0s-13.67,0-13.67,0c-2.42,0-4.38-1.95-4.38-4.35V5.75C1.4,3.35,3.37,1.39,5.78,1.39h140.41c2.42,0,4.38,1.95,4.38,4.35v83.07Z"/>
    <rect class="cls-1" x="17.28" y="94.56" width="8.81" height="0"/>
  </g>
  <rect class="cls-1" x="125.18" y="94.56" width="8.81" height="0"/>
  <path class="cls-1" d="M45.99,31.5c-6.61,0-11.99,5.34-11.99,11.91s5.38,11.91,11.99,11.91,11.99-5.34,11.99-11.91-5.38-11.91-11.99-11.91ZM45.99,53.92c-5.84,0-10.59-4.72-10.59-10.52s4.75-10.52,10.59-10.52,10.59,4.72,10.59,10.52-4.75,10.52-10.59,10.52ZM105.99,31.5c-6.61,0-11.99,5.34-11.99,11.91s5.38,11.91,11.99,11.91,11.99-5.34,11.99-11.91-5.38-11.91-11.99-11.91ZM105.99,53.92c-5.84,0-10.59-4.72-10.59-10.52s4.75-10.52,10.59-10.52,10.59,4.72,10.59,10.52-4.75,10.52-10.59,10.52ZM105.99,31.5c-6.61,0-11.99,5.34-11.99,11.91s5.38,11.91,11.99,11.91,11.99-5.34,11.99-11.91-5.38-11.91-11.99-11.91ZM105.99,53.92c-5.84,0-10.59-4.72-10.59-10.52s4.75-10.52,10.59-10.52,10.59,4.72,10.59,10.52-4.75,10.52-10.59,10.52ZM45.99,31.5c-6.61,0-11.99,5.34-11.99,11.91s5.38,11.91,11.99,11.91,11.99-5.34,11.99-11.91-5.38-11.91-11.99-11.91ZM45.99,53.92c-5.84,0-10.59-4.72-10.59-10.52s4.75-10.52,10.59-10.52,10.59,4.72,10.59,10.52-4.75,10.52-10.59,10.52ZM45.99,31.5c-6.61,0-11.99,5.34-11.99,11.91s5.38,11.91,11.99,11.91,11.99-5.34,11.99-11.91-5.38-11.91-11.99-11.91ZM45.99,53.92c-5.84,0-10.59-4.72-10.59-10.52s4.75-10.52,10.59-10.52,10.59,4.72,10.59,10.52-4.75,10.52-10.59,10.52ZM105.99,31.5c-6.61,0-11.99,5.34-11.99,11.91s5.38,11.91,11.99,11.91,11.99-5.34,11.99-11.91-5.38-11.91-11.99-11.91ZM105.99,53.92c-5.84,0-10.59-4.72-10.59-10.52s4.75-10.52,10.59-10.52,10.59,4.72,10.59,10.52-4.75,10.52-10.59,10.52ZM105.99,31.5c-6.61,0-11.99,5.34-11.99,11.91s5.38,11.91,11.99,11.91,11.99-5.34,11.99-11.91-5.38-11.91-11.99-11.91ZM105.99,53.92c-5.84,0-10.59-4.72-10.59-10.52s4.75-10.52,10.59-10.52,10.59,4.72,10.59,10.52-4.75,10.52-10.59,10.52ZM45.99,31.5c-6.61,0-11.99,5.34-11.99,11.91s5.38,11.91,11.99,11.91,11.99-5.34,11.99-11.91-5.38-11.91-11.99-11.91ZM45.99,53.92c-5.84,0-10.59-4.72-10.59-10.52s4.75-10.52,10.59-10.52,10.59,4.72,10.59,10.52-4.75,10.52-10.59,10.52ZM45.99,31.5c-6.61,0-11.99,5.34-11.99,11.91s5.38,11.91,11.99,11.91,11.99-5.34,11.99-11.91-5.38-11.91-11.99-11.91ZM45.99,53.92c-5.84,0-10.59-4.72-10.59-10.52s4.75-10.52,10.59-10.52,10.59,4.72,10.59,10.52-4.75,10.52-10.59,10.52ZM105.99,31.5c-6.61,0-11.99,5.34-11.99,11.91s5.38,11.91,11.99,11.91,11.99-5.34,11.99-11.91-5.38-11.91-11.99-11.91ZM105.99,53.92c-5.84,0-10.59-4.72-10.59-10.52s4.75-10.52,10.59-10.52,10.59,4.72,10.59,10.52-4.75,10.52-10.59,10.52ZM105.99,31.5c-6.61,0-11.99,5.34-11.99,11.91s5.38,11.91,11.99,11.91,11.99-5.34,11.99-11.91-5.38-11.91-11.99-11.91ZM105.99,53.92c-5.84,0-10.59-4.72-10.59-10.52s4.75-10.52,10.59-10.52,10.59,4.72,10.59,10.52-4.75,10.52-10.59,10.52ZM45.99,31.5c-6.61,0-11.99,5.34-11.99,11.91s5.38,11.91,11.99,11.91,11.99-5.34,11.99-11.91-5.38-11.91-11.99-11.91ZM45.99,53.92c-5.84,0-10.59-4.72-10.59-10.52s4.75-10.52,10.59-10.52,10.59,4.72,10.59,10.52-4.75,10.52-10.59,10.52ZM45.99,31.5c-6.61,0-11.99,5.34-11.99,11.91s5.38,11.91,11.99,11.91,11.99-5.34,11.99-11.91-5.38-11.91-11.99-11.91ZM45.99,53.92c-5.84,0-10.59-4.72-10.59-10.52s4.75-10.52,10.59-10.52,10.59,4.72,10.59,10.52-4.75,10.52-10.59,10.52ZM105.99,31.5c-6.61,0-11.99,5.34-11.99,11.91s5.38,11.91,11.99,11.91,11.99-5.34,11.99-11.91-5.38-11.91-11.99-11.91ZM105.99,53.92c-5.84,0-10.59-4.72-10.59-10.52s4.75-10.52,10.59-10.52,10.59,4.72,10.59,10.52-4.75,10.52-10.59,10.52ZM105.99,31.5c-6.61,0-11.99,5.34-11.99,11.91s5.38,11.91,11.99,11.91,11.99-5.34,11.99-11.91-5.38-11.91-11.99-11.91ZM105.99,53.92c-5.84,0-10.59-4.72-10.59-10.52s4.75-10.52,10.59-10.52,10.59,4.72,10.59,10.52-4.75,10.52-10.59,10.52ZM45.99,31.5c-6.61,0-11.99,5.34-11.99,11.91s5.38,11.91,11.99,11.91,11.99-5.34,11.99-11.91-5.38-11.91-11.99-11.91ZM45.99,53.92c-5.84,0-10.59-4.72-10.59-10.52s4.75-10.52,10.59-10.52,10.59,4.72,10.59,10.52-4.75,10.52-10.59,10.52ZM45.99,31.5c-6.61,0-11.99,5.34-11.99,11.91s5.38,11.91,11.99,11.91,11.99-5.34,11.99-11.91-5.38-11.91-11.99-11.91ZM45.99,53.92c-5.84,0-10.59-4.72-10.59-10.52s4.75-10.52,10.59-10.52,10.59,4.72,10.59,10.52-4.75,10.52-10.59,10.52ZM105.99,31.5c-6.61,0-11.99,5.34-11.99,11.91s5.38,11.91,11.99,11.91,11.99-5.34,11.99-11.91-5.38-11.91-11.99-11.91ZM105.99,53.92c-5.84,0-10.59-4.72-10.59-10.52s4.75-10.52,10.59-10.52,10.59,4.72,10.59,10.52-4.75,10.52-10.59,10.52ZM105.99,31.5c-6.61,0-11.99,5.34-11.99,11.91s5.38,11.91,11.99,11.91,11.99-5.34,11.99-11.91-5.38-11.91-11.99-11.91ZM105.99,53.92c-5.84,0-10.59-4.72-10.59-10.52s4.75-10.52,10.59-10.52,10.59,4.72,10.59,10.52-4.75,10.52-10.59,10.52ZM45.99,31.5c-6.61,0-11.99,5.34-11.99,11.91s5.38,11.91,11.99,11.91,11.99-5.34,11.99-11.91-5.38-11.91-11.99-11.91ZM45.99,53.92c-5.84,0-10.59-4.72-10.59-10.52s4.75-10.52,10.59-10.52,10.59,4.72,10.59,10.52-4.75,10.52-10.59,10.52ZM120.07,36.97c-.76-1.66-1.83-3.18-3.16-4.51-1.34-1.33-2.87-2.38-4.54-3.14-2.01-.91-4.21-1.39-6.48-1.39h-59.81c-2.27,0-4.47.48-6.48,1.39-1.67.76-3.2,1.81-4.54,3.14-1.23,1.22-2.22,2.6-2.97,4.11-.69,1.38-1.16,2.86-1.4,4.39-.13.8-.19,1.62-.19,2.45s.07,1.64.19,2.45c.24,1.53.72,3.01,1.4,4.39.75,1.5,1.74,2.89,2.97,4.11,1.33,1.33,2.87,2.38,4.54,3.14,2.01.91,4.21,1.39,6.48,1.39h59.81c2.27,0,4.47-.48,6.48-1.39,1.67-.76,3.2-1.81,4.54-3.14,1.34-1.33,2.4-2.85,3.16-4.51.92-1.99,1.4-4.18,1.4-6.44s-.48-4.44-1.4-6.44ZM105.9,57.49h-59.81c-7.02,0-12.87-5.1-13.99-11.76-.13-.76-.19-1.53-.19-2.32s.07-1.57.19-2.32c1.12-6.66,6.96-11.76,13.99-11.76h59.81c7.82,0,14.18,6.32,14.18,14.09s-6.36,14.09-14.18,14.09ZM105.99,31.5c-6.61,0-11.99,5.34-11.99,11.91s5.38,11.91,11.99,11.91,11.99-5.34,11.99-11.91-5.38-11.91-11.99-11.91ZM105.99,53.92c-5.84,0-10.59-4.72-10.59-10.52s4.75-10.52,10.59-10.52,10.59,4.72,10.59,10.52-4.75,10.52-10.59,10.52ZM45.99,31.5c-6.61,0-11.99,5.34-11.99,11.91s5.38,11.91,11.99,11.91,11.99-5.34,11.99-11.91-5.38-11.91-11.99-11.91ZM45.99,53.92c-5.84,0-10.59-4.72-10.59-10.52s4.75-10.52,10.59-10.52,10.59,4.72,10.59,10.52-4.75,10.52-10.59,10.52ZM45.99,31.5c-6.61,0-11.99,5.34-11.99,11.91s5.38,11.91,11.99,11.91,11.99-5.34,11.99-11.91-5.38-11.91-11.99-11.91ZM45.99,53.92c-5.84,0-10.59-4.72-10.59-10.52s4.75-10.52,10.59-10.52,10.59,4.72,10.59,10.52-4.75,10.52-10.59,10.52ZM105.99,31.5c-6.61,0-11.99,5.34-11.99,11.91s5.38,11.91,11.99,11.91,11.99-5.34,11.99-11.91-5.38-11.91-11.99-11.91ZM105.99,53.92c-5.84,0-10.59-4.72-10.59-10.52s4.75-10.52,10.59-10.52,10.59,4.72,10.59,10.52-4.75,10.52-10.59,10.52ZM105.99,31.5c-6.61,0-11.99,5.34-11.99,11.91s5.38,11.91,11.99,11.91,11.99-5.34,11.99-11.91-5.38-11.91-11.99-11.91ZM105.99,53.92c-5.84,0-10.59-4.72-10.59-10.52s4.75-10.52,10.59-10.52,10.59,4.72,10.59,10.52-4.75,10.52-10.59,10.52ZM45.99,31.5c-6.61,0-11.99,5.34-11.99,11.91s5.38,11.91,11.99,11.91,11.99-5.34,11.99-11.91-5.38-11.91-11.99-11.91ZM45.99,53.92c-5.84,0-10.59-4.72-10.59-10.52s4.75-10.52,10.59-10.52,10.59,4.72,10.59,10.52-4.75,10.52-10.59,10.52ZM45.99,31.5c-6.61,0-11.99,5.34-11.99,11.91s5.38,11.91,11.99,11.91,11.99-5.34,11.99-11.91-5.38-11.91-11.99-11.91ZM45.99,53.92c-5.84,0-10.59-4.72-10.59-10.52s4.75-10.52,10.59-10.52,10.59,4.72,10.59,10.52-4.75,10.52-10.59,10.52ZM105.99,31.5c-6.61,0-11.99,5.34-11.99,11.91s5.38,11.91,11.99,11.91,11.99-5.34,11.99-11.91-5.38-11.91-11.99-11.91ZM105.99,53.92c-5.84,0-10.59-4.72-10.59-10.52s4.75-10.52,10.59-10.52,10.59,4.72,10.59,10.52-4.75,10.52-10.59,10.52ZM105.99,31.5c-6.61,0-11.99,5.34-11.99,11.91s5.38,11.91,11.99,11.91,11.99-5.34,11.99-11.91-5.38-11.91-11.99-11.91ZM105.99,53.92c-5.84,0-10.59-4.72-10.59-10.52s4.75-10.52,10.59-10.52,10.59,4.72,10.59,10.52-4.75,10.52-10.59,10.52ZM45.99,31.5c-6.61,0-11.99,5.34-11.99,11.91s5.38,11.91,11.99,11.91,11.99-5.34,11.99-11.91-5.38-11.91-11.99-11.91ZM45.99,53.92c-5.84,0-10.59-4.72-10.59-10.52s4.75-10.52,10.59-10.52,10.59,4.72,10.59,10.52-4.75,10.52-10.59,10.52ZM45.99,31.5c-6.61,0-11.99,5.34-11.99,11.91s5.38,11.91,11.99,11.91,11.99-5.34,11.99-11.91-5.38-11.91-11.99-11.91ZM45.99,53.92c-5.84,0-10.59-4.72-10.59-10.52s4.75-10.52,10.59-10.52,10.59,4.72,10.59,10.52-4.75,10.52-10.59,10.52ZM105.99,31.5c-6.61,0-11.99,5.34-11.99,11.91s5.38,11.91,11.99,11.91,11.99-5.34,11.99-11.91-5.38-11.91-11.99-11.91ZM105.99,53.92c-5.84,0-10.59-4.72-10.59-10.52s4.75-10.52,10.59-10.52,10.59,4.72,10.59,10.52-4.75,10.52-10.59,10.52ZM105.99,31.5c-6.61,0-11.99,5.34-11.99,11.91s5.38,11.91,11.99,11.91,11.99-5.34,11.99-11.91-5.38-11.91-11.99-11.91ZM105.99,53.92c-5.84,0-10.59-4.72-10.59-10.52s4.75-10.52,10.59-10.52,10.59,4.72,10.59,10.52-4.75,10.52-10.59,10.52ZM45.99,31.5c-6.61,0-11.99,5.34-11.99,11.91s5.38,11.91,11.99,11.91,11.99-5.34,11.99-11.91-5.38-11.91-11.99-11.91ZM45.99,53.92c-5.84,0-10.59-4.72-10.59-10.52s4.75-10.52,10.59-10.52,10.59,4.72,10.59,10.52-4.75,10.52-10.59,10.52ZM45.99,31.5c-6.61,0-11.99,5.34-11.99,11.91s5.38,11.91,11.99,11.91,11.99-5.34,11.99-11.91-5.38-11.91-11.99-11.91ZM45.99,53.92c-5.84,0-10.59-4.72-10.59-10.52s4.75-10.52,10.59-10.52,10.59,4.72,10.59,10.52-4.75,10.52-10.59,10.52ZM105.99,31.5c-6.61,0-11.99,5.34-11.99,11.91s5.38,11.91,11.99,11.91,11.99-5.34,11.99-11.91-5.38-11.91-11.99-11.91ZM105.99,53.92c-5.84,0-10.59-4.72-10.59-10.52s4.75-10.52,10.59-10.52,10.59,4.72,10.59,10.52-4.75,10.52-10.59,10.52ZM105.99,31.5c-6.61,0-11.99,5.34-11.99,11.91s5.38,11.91,11.99,11.91,11.99-5.34,11.99-11.91-5.38-11.91-11.99-11.91ZM105.99,53.92c-5.84,0-10.59-4.72-10.59-10.52s4.75-10.52,10.59-10.52,10.59,4.72,10.59,10.52-4.75,10.52-10.59,10.52ZM45.99,31.5c-6.61,0-11.99,5.34-11.99,11.91s5.38,11.91,11.99,11.91,11.99-5.34,11.99-11.91-5.38-11.91-11.99-11.91ZM45.99,53.92c-5.84,0-10.59-4.72-10.59-10.52s4.75-10.52,10.59-10.52,10.59,4.72,10.59,10.52-4.75,10.52-10.59,10.52Z"/>
  <path class="cls-1" d="M52.83,82.17c-1.28,0-2.31,1.03-2.31,2.29s1.03,2.29,2.31,2.29,2.31-1.03,2.31-2.29-1.03-2.29-2.31-2.29ZM52.83,85.36c-.5,0-.9-.4-.9-.9s.4-.9.9-.9.9.4.9.9-.4.9-.9.9Z"/>
  <path class="cls-1" d="M75.64,74.94c-1.36,0-2.46,1.09-2.46,2.44s1.1,2.44,2.46,2.44,2.46-1.09,2.46-2.44-1.1-2.44-2.46-2.44ZM75.97,77.71c-.03.87-.17,1.52-.33,1.52s-.31-.66-.33-1.52c-.87-.03-1.53-.17-1.53-.33s.66-.3,1.53-.33c.03-.87.17-1.52.33-1.52s.31.66.33,1.52c.87.03,1.53.17,1.53.33s-.66.3-1.53.33Z"/>
  <path class="cls-1" d="M71.46,37.92c.04.18.08.36.11.54-.03-.18-.07-.36-.11-.54ZM71.46,48.89c.04-.18.08-.36.11-.54-.04.18-.07.36-.11.54Z"/>
  <path class="cls-1" d="M82.8,51.25c.07.18.13.37.21.55-.07-.18-.14-.37-.21-.55ZM81.97,48.45c.05.21.1.43.16.64-.05-.21-.11-.42-.16-.64Z"/>
  <path class="cls-1" d="M81.11,50.65c.06.19.12.38.19.57-.06-.19-.13-.38-.19-.57ZM69.06,34.74h0s.03.07.04.11c-.01-.03-.03-.07-.04-.11ZM69.06,52.07h0s.03-.07.04-.11c-.01.03-.03.07-.04.11Z"/>
  <g>
    <path class="cls-1" d="M105.99,31.5c-5.36,0-9.9,3.51-11.43,8.33v-3.46c0-1.67-1.28-3.02-2.84-3.02h-31.45c-1.57,0-2.84,1.36-2.84,3.02v3.46c-1.53-4.82-6.08-8.33-11.43-8.33-6.61,0-11.99,5.34-11.99,11.91s5.38,11.91,11.99,11.91c5.35,0,9.9-3.51,11.43-8.33v3.46c0,1.67,1.28,3.02,2.84,3.02h31.45c1.57,0,2.84-1.36,2.84-3.02v-3.46c1.53,4.82,6.08,8.33,11.43,8.33,6.61,0,11.99-5.34,11.99-11.91s-5.38-11.91-11.99-11.91ZM45.99,53.92c-5.84,0-10.59-4.72-10.59-10.52s4.75-10.52,10.59-10.52,10.58,4.72,10.58,10.52-4.75,10.52-10.58,10.52ZM70.53,45.74s0,.01,0,.02c0,.09-.02.18-.03.28,0,0,0,0,0,.01,0,.08-.02.15-.03.23,0,.03,0,.06-.01.09,0,.08-.02.17-.03.25-.01.09-.02.18-.04.28,0,0,0,.01,0,.02-.01.07-.02.15-.03.22-.01.08-.02.15-.04.23,0,.05-.02.11-.03.16-.01.08-.03.17-.04.25-.02.08-.03.16-.05.25-.02.1-.04.21-.06.31-.02.09-.04.19-.06.28-.02.09-.04.19-.06.28,0,0,0,0,0,0-.04.18-.08.36-.13.53-.03.12-.06.24-.1.36-.02.08-.04.15-.06.23-.03.09-.05.19-.08.28-.05.19-.11.37-.17.56-.06.18-.12.36-.18.54,0,.02-.01.03-.02.05-.03.08-.06.16-.09.24-.03.09-.07.18-.1.27-.01.04-.03.07-.04.11h-8.8c-.79,0-1.44-.73-1.44-1.63v-14.07c0-.9.65-1.63,1.44-1.63h8.8s.03.07.04.11c.03.09.07.18.1.27.03.08.06.15.08.23,0,.03.02.05.03.07.03.08.06.16.08.25.03.09.06.18.09.28.03.09.06.18.09.28.03.09.06.19.08.28.03.09.05.19.08.28.02.08.04.15.06.23.03.12.07.24.1.36.04.18.09.36.13.53,0,0,0,0,0,0,.02.09.04.19.06.28.02.09.04.19.06.28.02.1.04.21.06.31.02.08.03.16.05.25.01.08.03.17.04.25,0,.05.02.11.03.16.01.07.02.15.04.23.01.08.02.15.03.23,0,0,0,0,0,0,.01.09.03.19.04.28.01.09.02.17.03.26,0,.03,0,.05,0,.08,0,.08.02.16.03.24,0,0,0,0,0,.01,0,.09.02.17.03.26,0,.01,0,.03,0,.04,0,.08.01.16.02.24,0,.02,0,.04,0,.06,0,.05,0,.11.01.16,0,.06,0,.13.01.19,0,.08.01.16.02.25,0,.09,0,.18.01.27,0,.06,0,.12,0,.18.01.32.02.65.02.98s0,.65-.02.97c0,.06,0,.12,0,.19,0,.09,0,.18-.01.27,0,.08,0,.16-.02.24,0,.06,0,.13-.01.19,0,.05,0,.11-.01.16,0,.02,0,.04,0,.06,0,.08-.01.17-.02.25ZM70.56,52.07s.02-.07.04-.1c.09-.25.17-.51.26-.76.05-.15.09-.3.14-.44.02-.08.05-.16.07-.24,0-.01,0-.03.01-.04.02-.08.05-.17.07-.25.02-.09.05-.18.07-.27.02-.09.05-.18.07-.27.02-.09.04-.18.07-.27.02-.09.04-.18.06-.27.02-.09.04-.18.06-.27.04-.18.08-.36.11-.54.02-.08.03-.17.05-.25,0,0,0-.01,0-.02.02-.09.03-.18.05-.27.02-.09.03-.18.04-.27.01-.07.02-.13.03-.2,0-.05.02-.1.02-.16,0-.05.01-.1.02-.16,0-.02,0-.05,0-.07.01-.08.02-.15.03-.23.04-.27.07-.55.09-.82,0-.09.02-.18.02-.28,0-.07.01-.14.02-.2,0-.03,0-.07,0-.1,0-.05,0-.1.01-.15,0-.06,0-.12.01-.18,0-.02,0-.04,0-.06,0-.09.01-.19.01-.28,0-.08,0-.16,0-.23,0-.06,0-.11,0-.17,0-.08,0-.16,0-.25,0-.09,0-.19,0-.28,0-.1,0-.21,0-.31s0-.21,0-.31c0-.09,0-.19,0-.28,0-.08,0-.16,0-.25,0-.06,0-.12,0-.17,0-.08,0-.16,0-.23,0-.09,0-.18-.01-.28,0-.02,0-.05,0-.07,0-.05,0-.11,0-.16,0-.06,0-.11-.01-.17,0-.03,0-.06,0-.08,0-.07-.01-.15-.02-.22,0-.09-.02-.18-.02-.28-.03-.28-.06-.55-.09-.82-.01-.08-.02-.17-.03-.25,0-.01,0-.02,0-.04,0-.06-.02-.12-.03-.18,0-.05-.01-.1-.02-.15,0-.07-.02-.13-.03-.2-.01-.09-.03-.18-.04-.27-.02-.09-.03-.18-.05-.27,0,0,0-.01,0-.02-.02-.09-.03-.17-.05-.26-.04-.18-.07-.36-.11-.54-.02-.09-.04-.18-.06-.27-.02-.09-.04-.18-.06-.27-.02-.09-.04-.18-.07-.27-.02-.09-.04-.18-.07-.27-.02-.09-.05-.18-.07-.27-.02-.08-.05-.17-.07-.25,0-.01,0-.03-.01-.04-.02-.08-.04-.15-.07-.23-.05-.15-.09-.31-.14-.46-.08-.25-.16-.5-.25-.75-.01-.03-.02-.07-.04-.1h10.7c-.02.05-.03.1-.05.16-.03.09-.06.18-.09.28-.03.09-.06.18-.09.28-.03.09-.05.17-.08.26,0,.02-.01.05-.02.07-.02.08-.04.15-.06.23-.03.09-.05.19-.08.28-.02.09-.05.19-.07.28-.02.09-.05.19-.07.28-.02.09-.04.19-.07.28,0,0,0,0,0,0-.02.09-.04.19-.06.28-.02.09-.04.19-.06.28-.02.09-.04.19-.06.28-.02.09-.04.19-.05.29-.01.08-.03.16-.04.24,0,.03,0,.06-.01.09,0,.01,0,.03,0,.04,0,.06-.02.12-.03.17,0,0,0,.02,0,.03,0,.01,0,.02,0,.03,0,.01,0,.03,0,.04-.01.08-.02.15-.03.23-.01.08-.02.16-.04.25-.01.07-.02.15-.03.22,0,.06-.02.12-.02.18,0,.07-.02.14-.03.22,0,.08-.02.17-.03.25,0,.02,0,.04,0,.06-.01.13-.02.26-.04.38,0,0,0,.02,0,.03,0,.05,0,.09-.01.14,0,.07-.01.15-.02.22,0,.09-.01.17-.02.26,0,.06,0,.12,0,.18,0,.05,0,.1,0,.15,0,.05,0,.1,0,.15,0,0,0,.01,0,.02,0,.01,0,.03,0,.05,0,.04,0,.07,0,.11,0,.04,0,.07,0,.11,0,.13,0,.26,0,.38,0,.05,0,.1,0,.16,0,.09,0,.18,0,.26,0,.11,0,.22,0,.33,0,.11,0,.22,0,.33,0,.09,0,.18,0,.27,0,0,0,.02,0,.03,0,.03,0,.05,0,.08,0,.07,0,.14,0,.22,0,0,0,.01,0,.02,0,.07,0,.13.01.2,0,.08,0,.15.01.23h0c0,.06,0,.11.01.16,0,0,0,0,0,0,0,.06,0,.13.01.19h0c0,.07,0,.13.02.19,0,.03,0,.07,0,.1,0,.09.02.17.02.26,0,.08.02.15.02.23,0,.02,0,.04,0,.06,0,.01,0,.02,0,.04,0,.09.02.17.03.25,0,.08.02.15.03.23,0,0,0,.02,0,.02,0,.06.02.13.03.19.01.08.02.16.03.23,0,.03,0,.06.01.09,0,0,0,.01,0,.02,0,.05.02.11.03.16,0,.01,0,.02,0,.03,0,.04.01.09.02.13,0,0,0,0,0,.01.02.09.03.19.05.28,0,.06.02.11.03.17,0,.03.01.06.02.09,0,.03.01.06.02.09.01.07.03.13.04.2.01.06.03.13.04.19.01.06.03.13.04.2.02.1.04.19.06.29.02.08.04.16.06.24,0,.02,0,.04.01.06,0,.04.02.08.03.12.01.04.02.08.03.13.01.05.02.1.04.14.02.07.04.14.05.21,0,.03.02.07.03.1.02.09.05.17.07.26.03.1.06.21.09.31.02.07.04.15.07.22,0,0,0,.02,0,.03,0,0,0,0,0,.01,0,.01,0,.03.01.05,0,.01,0,.02.01.03,0,0,0,0,0,.01.06.19.12.38.19.57,0,0,0,.02,0,.03.09.28.19.55.3.83h-11.05ZM93.15,50.44c0,.9-.65,1.63-1.44,1.63h-8.6c-.04-.09-.07-.18-.11-.27-.07-.18-.14-.37-.21-.55-.03-.09-.07-.18-.1-.28-.03-.09-.06-.17-.09-.26,0-.02-.01-.04-.02-.06-.03-.08-.05-.16-.08-.24-.02-.07-.04-.14-.07-.21-.04-.14-.09-.28-.13-.42-.02-.07-.04-.14-.06-.21-.03-.09-.05-.19-.08-.28,0,0,0,0,0,0-.02-.07-.04-.14-.06-.21-.06-.21-.11-.42-.16-.64-.02-.09-.04-.19-.06-.28-.02-.09-.04-.19-.06-.29-.02-.09-.04-.18-.05-.27,0,0,0-.02,0-.02,0,0,0-.02,0-.03,0-.04-.02-.09-.03-.13,0,0,0-.02,0-.03,0-.04-.02-.09-.02-.13-.01-.08-.03-.17-.04-.25-.02-.1-.03-.19-.05-.29-.01-.09-.03-.18-.04-.27,0-.02,0-.03,0-.05,0-.06-.02-.12-.03-.18,0-.05-.02-.11-.02-.16,0-.04-.01-.08-.01-.12,0-.06-.01-.11-.02-.16,0-.06-.01-.11-.02-.17h0s0-.05,0-.07c0-.01,0-.02,0-.04,0-.06-.01-.12-.02-.19,0-.01,0-.02,0-.04,0,0,0-.01,0-.02,0-.08-.02-.17-.02-.25,0,0,0-.02,0-.02,0-.01,0-.03,0-.04,0,0,0,0,0,0,0-.07-.01-.14-.02-.21,0-.05,0-.1,0-.15,0-.05,0-.1,0-.16,0-.05,0-.11,0-.16,0-.05,0-.11,0-.16,0-.08,0-.17-.01-.25,0-.09,0-.18,0-.27,0-.02,0-.04,0-.06,0-.2,0-.4,0-.59,0-.09,0-.18,0-.26,0-.07,0-.13,0-.2,0-.05,0-.1,0-.15,0-.03,0-.07,0-.1,0-.06,0-.12,0-.17,0-.07,0-.14,0-.21,0-.02,0-.03,0-.05,0-.07,0-.14.01-.21,0,0,0,0,0,0,0-.06,0-.13.01-.19,0-.01,0-.02,0-.04,0-.05,0-.09,0-.14,0-.06,0-.13.01-.19,0-.06,0-.12.01-.17,0-.08.01-.15.02-.23,0-.06.01-.13.02-.19,0,0,0-.01,0-.02,0-.05,0-.1.02-.15,0,0,0,0,0,0,0-.05,0-.09.02-.14,0-.04,0-.07.01-.11,0-.05.01-.09.02-.14,0-.08.02-.15.03-.23,0-.06.01-.11.02-.17,0-.06.02-.11.02-.17.02-.1.03-.21.05-.31,0,0,0-.02,0-.03,0-.06.02-.12.03-.17.01-.06.02-.13.03-.19,0-.04.01-.08.02-.12.01-.07.02-.13.04-.2.03-.17.07-.34.1-.51.02-.08.04-.17.06-.25.02-.08.04-.17.06-.25.02-.07.04-.15.05-.22.01-.06.03-.11.04-.17.01-.06.03-.12.04-.17.02-.06.03-.13.05-.19.02-.07.04-.14.06-.21,0,0,0-.02,0-.02,0,0,0-.02,0-.03.02-.06.03-.12.05-.17,0-.03.02-.06.03-.1.02-.07.04-.14.06-.21,0-.02.01-.03.02-.05.02-.06.04-.13.06-.19.02-.06.04-.12.06-.19.02-.07.05-.14.07-.21.01-.04.02-.07.04-.11.03-.08.06-.16.09-.25h8.97c.79,0,1.44.73,1.44,1.63v14.07ZM105.99,53.92c-5.84,0-10.58-4.72-10.58-10.52s4.75-10.52,10.58-10.52,10.58,4.72,10.58,10.52-4.75,10.52-10.58,10.52Z"/>
    <path class="cls-1" d="M45.99,34.41c-4.99,0-9.05,4.03-9.05,8.99s4.06,8.99,9.05,8.99,9.05-4.03,9.05-8.99-4.06-8.99-9.05-8.99ZM51.36,44.68l-1.58,2.71,1.89,1.08c-1.07,1.18-2.5,2.03-4.11,2.36v-2.17h-3.15v2.17c-1.62-.34-3.05-1.18-4.11-2.36l1.89-1.08-1.58-2.71-1.89,1.09c-.25-.74-.38-1.54-.38-2.36s.13-1.62.38-2.36l1.89,1.09,1.58-2.71-1.89-1.09c1.07-1.18,2.5-2.03,4.11-2.36v2.17h3.15v-2.17c1.62.34,3.05,1.18,4.11,2.36l-1.89,1.09,1.58,2.71,1.89-1.09c.25.74.38,1.54.38,2.36s-.13,1.62-.38,2.36l-1.89-1.09Z"/>
    <path class="cls-1" d="M105.99,34.41c-4.99,0-9.05,4.03-9.05,8.99s4.06,8.99,9.05,8.99,9.05-4.03,9.05-8.99-4.06-8.99-9.05-8.99ZM111.37,44.68l-1.58,2.71,1.89,1.08c-1.07,1.18-2.5,2.03-4.11,2.36v-2.17h-3.15v2.17c-1.62-.34-3.05-1.18-4.11-2.36l1.89-1.08-1.58-2.71-1.89,1.09c-.25-.74-.38-1.54-.38-2.36s.13-1.62.38-2.36l1.9,1.09,1.58-2.71-1.89-1.09c1.07-1.18,2.5-2.03,4.11-2.36v2.17h3.15v-2.17c1.62.34,3.05,1.18,4.11,2.36l-1.89,1.09,1.58,2.71,1.9-1.09c.25.74.38,1.54.38,2.36s-.13,1.62-.38,2.36l-1.89-1.09Z"/>
  </g>
  <g>
    <path class="cls-1" d="M6.28,3.89c-1.36,0-2.46,1.09-2.46,2.44s1.1,2.44,2.46,2.44,2.46-1.09,2.46-2.44-1.1-2.44-2.46-2.44ZM6.61,6.66c-.03.87-.17,1.52-.33,1.52s-.31-.66-.33-1.52c-.87-.03-1.53-.17-1.53-.33s.66-.3,1.53-.33c.03-.87.17-1.52.33-1.52s.31.66.33,1.52c.87.03,1.53.17,1.53.33s-.66.3-1.53.33Z"/>
    <path class="cls-1" d="M6.39,85.78c-1.36,0-2.46,1.09-2.46,2.44s1.1,2.44,2.46,2.44,2.46-1.09,2.46-2.44-1.1-2.44-2.46-2.44ZM6.73,88.56c-.03.87-.17,1.52-.33,1.52s-.31-.66-.33-1.52c-.87-.03-1.53-.17-1.53-.33s.66-.3,1.53-.33c.03-.87.17-1.52.33-1.52s.31.66.33,1.52c.87.03,1.53.17,1.53.33s-.66.3-1.53.33Z"/>
    <path class="cls-1" d="M145.77,3.89c-1.36,0-2.46,1.09-2.46,2.44s1.1,2.44,2.46,2.44,2.46-1.09,2.46-2.44-1.1-2.44-2.46-2.44ZM146.1,6.66c-.03.87-.17,1.52-.33,1.52s-.31-.66-.33-1.52c-.87-.03-1.53-.17-1.53-.33s.66-.3,1.53-.33c.03-.87.17-1.52.33-1.52s.31.66.33,1.52c.87.03,1.53.17,1.53.33s-.66.3-1.53.33Z"/>
    <path class="cls-1" d="M145.77,85.78c-1.36,0-2.46,1.09-2.46,2.44s1.1,2.44,2.46,2.44,2.46-1.09,2.46-2.44-1.1-2.44-2.46-2.44ZM146.1,88.56c-.03.87-.17,1.52-.33,1.52s-.31-.66-.33-1.52c-.87-.03-1.53-.17-1.53-.33s.66-.3,1.53-.33c.03-.87.17-1.52.33-1.52s.31.66.33,1.52c.87.03,1.53.17,1.53.33s-.66.3-1.53.33Z"/>
  </g>
  <path class="cls-1" d="M37.88,85.75c-1.28,0-2.31,1.03-2.31,2.29s1.03,2.29,2.31,2.29,2.31-1.03,2.31-2.29-1.03-2.29-2.31-2.29ZM37.88,88.94c-.5,0-.9-.4-.9-.9s.4-.9.9-.9.9.4.9.9-.4.9-.9.9Z"/>
  <path class="cls-1" d="M111.08,88.04c0,1.27,1.03,2.29,2.31,2.29s2.31-1.03,2.31-2.29-1.03-2.29-2.31-2.29-2.31,1.03-2.31,2.29ZM112.49,88.04c0-.5.4-.9.9-.9s.9.4.9.9-.4.9-.9.9-.9-.4-.9-.9Z"/>
  <rect class="cls-1" x="25.11" y="22.8" width="102.05" height="1.39"/>
  <rect class="cls-1" x="25.11" y="14.49" width="102.05" height="1.39"/>
  <path class="cls-1" d="M96.14,84.46c0,1.27,1.03,2.29,2.31,2.29s2.31-1.03,2.31-2.29-1.03-2.29-2.31-2.29-2.31,1.03-2.31,2.29ZM97.54,84.46c0-.5.4-.9.9-.9s.9.4.9.9-.4.9-.9.9-.9-.4-.9-.9Z"/>
</svg>