<?xml version="1.0" encoding="UTF-8"?>
<svg id="uuid-d56fa70d-a478-4646-9c10-4cfaeacd8fec" data-name="Capa 2" xmlns="http://www.w3.org/2000/svg" viewBox="0 0 83.49 15.97">
  <g id="uuid-af7d54b2-656c-40f4-a85d-cfe4d25ea828" data-name="Capa 1">
    <g>
      <g>
        <path d="M13,5.16h3.58v2.09h-3.58v-2.09Z" style="fill: #fdf7cd; fill-rule: evenodd;"/>
        <path d="M13,8.05h3.58v2.09h-3.58v-2.09Z" style="fill: #fdf7cd; fill-rule: evenodd;"/>
        <path d="M13,10.96h3.58v2.09h-3.58v-2.09Z" style="fill: #fdf7cd; fill-rule: evenodd;"/>
        <path d="M0,13.87h3.58v2.09H0v-2.09Z" style="fill: #fdf7cd; fill-rule: evenodd;"/>
        <path d="M4.33,13.87h3.58v2.09h-3.58v-2.09Z" style="fill: #fdf7cd; fill-rule: evenodd;"/>
        <path d="M8.67,13.87h3.58v2.09h-3.58v-2.09Z" style="fill: #fdf7cd; fill-rule: evenodd;"/>
        <path d="M13,13.87h3.58v2.09h-3.58v-2.09Z" style="fill: #fdf7cd; fill-rule: evenodd;"/>
        <path d="M8.67,10.96h3.58v2.09h-3.58v-2.09Z" style="fill: #fdf7cd; fill-rule: evenodd;"/>
        <path d="M4.33,10.96h3.58v2.09h-3.58v-2.09Z" style="fill: #fdf7cd; fill-rule: evenodd;"/>
        <path d="M4.33,8.05h3.58v2.09h-3.58v-2.09Z" style="fill: #fdf7cd; fill-rule: evenodd;"/>
      </g>
      <path d="M19.55,10.61c0,3.34,2.07,5.35,5.13,5.35,1.53,0,2.82-.43,3.54-1.55v1.55h2.8V0h-2.91v6.79c-.67-1.12-1.88-1.62-3.41-1.62-3-.02-5.15,2.03-5.15,5.43ZM28.2,10.61c0,1.92-1.29,3.1-2.87,3.1s-2.87-1.19-2.87-3.1,1.25-3.17,2.87-3.17,2.87,1.23,2.87,3.17ZM40.05,11.83c-.32,1.23-1.19,1.85-2.5,1.85-1.55,0-2.82-.93-2.85-2.59h7.33c.09-.41.13-.84.13-1.31,0-2.97-2.03-4.63-5-4.63-3.19,0-5.37,2.26-5.37,5.35,0,3.43,2.41,5.48,5.76,5.48,2.52,0,4.22-1.06,4.98-3.15l-2.48-.99ZM34.7,9.16c.28-1.19,1.27-1.9,2.46-1.9,1.29,0,2.18.71,2.18,1.81l-.02.09h-4.61ZM50.83,11.83c-.32,1.23-1.19,1.85-2.5,1.85-1.55,0-2.82-.93-2.85-2.59h7.33c.09-.41.13-.84.13-1.31,0-2.97-2.03-4.63-5-4.63-3.19,0-5.37,2.26-5.37,5.35,0,3.43,2.41,5.48,5.76,5.48,2.52,0,4.22-1.06,4.98-3.15l-2.48-.99ZM45.48,9.16c.28-1.19,1.27-1.9,2.46-1.9,1.29,0,2.18.71,2.18,1.81l-.02.09h-4.61ZM63.18,15.97v-2.63h-6.1l5.93-5.78v-2.41h-9.4v2.5h5.73l-5.93,5.8v2.5h9.76v.02ZM71.67,11.83c-.32,1.23-1.19,1.85-2.5,1.85-1.55,0-2.82-.93-2.85-2.59h7.33c.09-.41.13-.84.13-1.31,0-2.97-2.03-4.63-5-4.63-3.19,0-5.37,2.26-5.37,5.35,0,3.43,2.41,5.48,5.76,5.48,2.52,0,4.22-1.06,4.98-3.15l-2.48-.99ZM66.33,9.16c.28-1.19,1.27-1.9,2.46-1.9,1.29,0,2.18.71,2.18,1.81l-.02.09h-4.61ZM80.66,8.88v.3h2.82v-.82c0-1.85-1.16-3.19-3.1-3.19-1.25,0-2.13.6-2.59,1.62v-1.62h-2.93v10.8h2.93v-6.96c0-1.1.6-1.7,1.51-1.7.84,0,1.36.78,1.36,1.57Z" style="fill: #fdf7cd;"/>
    </g>
  </g>
</svg>