<?xml version="1.0" encoding="UTF-8"?>
<svg id="uuid-20c35fcc-bbe9-4c88-a1e6-eb9e3f468c1e" data-name="Capa 1" xmlns="http://www.w3.org/2000/svg" viewBox="0 0 809.53 119.49">
  <polygon points="18.75 64.95 34.55 64.95 34.55 47.65 18.75 47.65 18.75 17.85 41.35 17.85 41.35 .55 .45 .55 .45 117.45 42.75 117.45 42.75 100.25 18.75 100.25 18.75 64.95" style="fill: #fdf6ca;"/>
  <polygon points="86.35 .55 68.05 .55 68.05 117.45 109.05 117.45 109.05 100.25 86.35 100.25 86.35 .55" style="fill: #fdf6ca;"/>
  <path d="M209.55,40.15h18.3v-1.1c.4-4.5.4-6.8.4-9.2,0-20.6-8.2-31.1-24.4-31.1s-23.7,9.9-23.7,28.7v60.6c0,10.7.8,15.4,3.4,20.3,3.5,6.5,10.3,10.7,17.2,10.7s10.2-2.7,14.5-8.2l2,6.5h10.6v-60.6h-25.4v15.9h7v15.3c0,6.3,0,7.3-.5,9.4-.6,2.8-2.7,4.6-5.4,4.6s-4.1-1.7-4.7-4.2c-.5-2.1-.5-2.2-.5-9.7V27.45c0-10.3,1.6-11.4,5.4-11.4s6,1.5,6,15.2,0,4.1-.3,7.6v1.3h.1Z" style="fill: #fdf6ca;"/>
  <path d="M303.85,33.65c0-9.7-1.4-16.3-4.6-22-4.7-8.3-11.2-11.1-25.9-11.1h-16.8v116.9h18.3v-48.7c1.3,0,2.1-.2,3.6-.4l9.2,49.1h19.6l-11.3-55.7c6.6-8.3,8-13.5,8-28.1h-.1ZM284.95,45.85c-.7,2.1-2.4,4.5-9,4.5h-1.1V17.85h1.1c7.4,0,10,1.9,10,12.7s-.1,12.6-1,15.3Z" style="fill: #fdf6ca;"/>
  <path d="M347.05.55l-16,116.9h17.8l2.7-25.8h12.3l2.9,25.8h18L369.45.55h-22.7.3ZM353.65,74.45l4.2-40.6,4.2,40.6h-8.4Z" style="fill: #fdf6ca;"/>
  <polygon points="446.05 61.65 426.95 .55 411.15 .55 411.15 117.45 429.45 117.45 429.45 63.85 446.35 117.45 464.35 117.45 464.35 .55 446.05 .55 446.05 61.65" style="fill: #fdf6ca;"/>
  <path d="M553.35.55l-16,116.9h17.8l2.7-25.8h12.3l2.9,25.8h18L575.75.55h-22.7.3ZM559.95,74.45l4.2-40.6,4.2,40.6h-8.4Z" style="fill: #fdf6ca;"/>
  <path d="M646.25,40.15h18.3v-1.1c.4-4.5.4-6.5.4-9.2,0-20.6-8.2-31.1-24.4-31.1s-23.7,9.9-23.7,28.7v63c0,18.7,8.2,28.7,23.7,28.7s24.4-10.3,24.4-31.6,0-3.6-.1-6.1c0-1.6-.1-3.5-.2-6v-1.1h-18.3v1.2c0,1.9.2,3.5.2,4.9.1,2.8.2,4.8.2,7.2,0,12.1-1.9,14.1-6,14.1s-5.4-1-5.4-11.4V27.35c0-10.3,1.6-11.4,5.4-11.4s6,1.5,6,15,0,4.1-.3,7.8v1.3l-.2.1Z" style="fill: #fdf6ca;"/>
  <polygon points="687.05 17.85 701.95 17.85 701.95 117.45 720.35 117.45 720.35 17.85 735.95 17.85 735.95 .55 687.05 .55 687.05 17.85" style="fill: #fdf6ca;"/>
  <path d="M804.95,8.65c-4-6-11.7-9.8-20-9.8s-16,3.8-20.1,9.8c-3.3,5.2-3.8,8.3-3.8,22.1v56.3c0,13.8.5,16.8,3.8,22.1,4,6.2,11.7,10,20,10s16.1-3.8,20.1-10c3.3-5.2,3.8-8.3,3.8-22.1V30.75c0-13.8-.5-16.8-3.8-22.1h0ZM779.45,24.25c0-6.7,2.2-8.1,5.5-8.1s5.5,1.3,5.5,8.1v69.6c0,6.7-2.2,8.1-5.5,8.1s-5.5-1.4-5.5-8.1V24.25Z" style="fill: #fdf6ca;"/>
</svg>