<?xml version="1.0" encoding="UTF-8"?>
<svg id="uuid-22a0758c-9616-48fe-afef-4eec546d2930" data-name="Capa 2" xmlns="http://www.w3.org/2000/svg" viewBox="0 0 33.39 33.39">
  <g id="uuid-ddd2a859-87ca-4dfa-a31f-8cdc2637e965" data-name="Capa 1">
    <path d="M16.69,0C7.47,0,0,7.47,0,16.69s7.47,16.69,16.69,16.69,16.69-7.47,16.69-16.69S25.91,0,16.69,0ZM22.79,7.08v2.09c-.82,0-1.6-.03-2.38,0-1.46.06-2.02.58-2.11,2.02-.06.92-.01,1.86-.01,2.92h4.36c-.19,1.5-.35,2.86-.54,4.38h-3.8v11.31h-4.57v-11.23h-3.74v-4.36h3.62c.31-2.96-.55-6.16,2.4-8.15,1.49-1.01,3.73-1.26,6.77-.77v1.79Z" style="fill: #e9e2b4;"/>
  </g>
</svg>