<?xml version="1.0" encoding="UTF-8"?>
<svg id="uuid-6b290a8a-0338-479a-bec2-356eef24bdba" data-name="Capa_2" xmlns="http://www.w3.org/2000/svg" viewBox="0 0 33.45 33.45">
  <g id="uuid-934822c2-f031-4164-b4dc-f4ed1e09ad30" data-name="Capa_1">
    <path d="M16.73,0C7.49,0,0,7.49,0,16.73s7.49,16.73,16.73,16.73,16.73-7.49,16.73-16.73S25.96,0,16.73,0ZM15.94,24.97c-1.03,1.03-2.38,1.54-3.73,1.54s-2.7-.51-3.73-1.54c-1-1-1.54-2.32-1.54-3.73s.55-2.73,1.54-3.73l3.41-3.41,1.08,1.08-3.41,3.41c-.71.71-1.1,1.65-1.1,2.64s.39,1.94,1.1,2.64c1.46,1.46,3.83,1.46,5.29,0l3.41-3.41,1.08,1.08-3.41,3.41ZM19.84,12.53l1.08,1.08-7.31,7.31-1.08-1.08,7.31-7.31ZM24.97,15.94l-3.41,3.41-1.08-1.08,3.41-3.41c1.46-1.46,1.46-3.83,0-5.29-.71-.71-1.65-1.1-2.64-1.1s-1.94.39-2.64,1.1l-3.41,3.41-1.08-1.08,3.41-3.41c1-1,2.32-1.54,3.73-1.54s2.73.55,3.73,1.54c2.06,2.06,2.06,5.4,0,7.45Z" style="fill: #e9e2b4;"/>
  </g>
</svg>