<?xml version="1.0" encoding="UTF-8"?>
<svg id="uuid-3f477493-de9f-4b33-93e2-0c17c02e85c2" data-name="Capa_2" xmlns="http://www.w3.org/2000/svg" viewBox="0 0 38.26 38.26">
  <g id="uuid-5a3a421b-68cf-404c-b805-86fd103315cc" data-name="Capa_1">
    <g>
      <circle cx="19.13" cy="19.13" r="19.13" style="fill: #fff;"/>
      <g>
        <path d="M19,31.6c-1.83,0-3.66.08-5.49-.02-3.48-.19-6.01-2.55-6.16-6-.16-3.93-.16-7.87,0-11.8.13-3.22,2.35-5.65,5.54-5.83,4.19-.24,8.42-.23,12.62,0,3.1.17,5.33,2.56,5.48,5.7.18,3.98.19,7.98.02,11.96-.15,3.41-2.61,5.74-6.01,5.95-1.99.12-3.99.02-5.99.02,0,0,0,0,0,0ZM19.29,9.91s0,0,0,0c-1.78,0-3.56-.07-5.33.02-2.84.14-4.53,1.82-4.59,4.66-.08,3.44-.09,6.89,0,10.32.08,2.8,1.75,4.55,4.45,4.62,3.55.1,7.11.1,10.66,0,2.63-.08,4.38-1.7,4.47-4.24.13-3.66.14-7.33,0-10.99-.1-2.73-1.89-4.31-4.68-4.39-1.66-.05-3.33,0-5,0Z"/>
        <path d="M19.16,13.55c3.5,0,6.2,2.72,6.18,6.22-.02,3.36-2.79,6.13-6.14,6.13-3.41,0-6.22-2.84-6.19-6.27.03-3.39,2.76-6.08,6.16-6.08ZM19.23,23.71c2.22-.02,4.01-1.87,3.96-4.08-.05-2.14-1.83-3.9-3.97-3.93-2.19-.03-4.02,1.79-4.03,4.02,0,2.22,1.8,4.01,4.03,3.99Z"/>
        <circle cx="25.34" cy="12.64" r="1.41"/>
      </g>
    </g>
  </g>
</svg>