<?xml version="1.0" encoding="UTF-8"?>
<svg id="uuid-a2ab5787-a7c0-4695-a389-11dab6ad8b4b" data-name="Capa_2" xmlns="http://www.w3.org/2000/svg" viewBox="0 0 27.81 27.77">
  <g id="uuid-565caa25-fc63-4b5a-bee3-b93d5e209a12" data-name="Capa_1">
    <g>
      <path d="M13.7,27.74c-2.13,0-4.27.1-6.39-.02-4.05-.23-7-2.97-7.17-6.98-.19-4.57-.19-9.17,0-13.74C.29,3.24,2.87.41,6.59.2c4.88-.28,9.8-.27,14.69,0,3.61.19,6.21,2.98,6.38,6.64.21,4.64.22,9.29.02,13.93-.17,3.97-3.04,6.68-7,6.93-2.31.14-4.65.03-6.97.03h0ZM14.03,2.49s0,0,0,0c-2.07,0-4.14-.08-6.2.02-3.31.16-5.28,2.12-5.35,5.43-.09,4-.1,8.02,0,12.02.09,3.25,2.04,5.29,5.19,5.38,4.13.12,8.27.12,12.41,0,3.07-.09,5.1-1.98,5.21-4.93.15-4.26.16-8.53,0-12.79-.11-3.18-2.2-5.01-5.44-5.11-1.94-.06-3.88-.01-5.82-.01Z" style="fill: #e9e2b4;"/>
      <path d="M13.89,6.73c4.07,0,7.21,3.17,7.19,7.24-.02,3.91-3.25,7.13-7.15,7.14-3.97,0-7.24-3.3-7.2-7.3.03-3.94,3.21-7.08,7.17-7.08ZM13.96,18.55c2.59-.03,4.67-2.17,4.61-4.75-.06-2.5-2.13-4.55-4.62-4.58-2.55-.04-4.68,2.09-4.69,4.68,0,2.59,2.09,4.67,4.7,4.64Z" style="fill: #e9e2b4;"/>
      <path d="M22.71,5.66c0,.9-.73,1.64-1.64,1.64s-1.64-.73-1.64-1.64.73-1.64,1.64-1.64,1.64.73,1.64,1.64Z" style="fill: #e9e2b4;"/>
    </g>
  </g>
</svg>