<?xml version="1.0" encoding="UTF-8"?>
<svg id="uuid-9202a4e8-135a-4e24-9522-6dbb3bfd0f0d" data-name="Capa_2" xmlns="http://www.w3.org/2000/svg" viewBox="0 0 570.25 60.8">
  <g id="uuid-6f8619b6-cd69-4108-97dd-5e7f76c19fae" data-name="Capa_1">
    <g>
      <g>
        <path d="M11.62,59.76H0V.81h11.62v58.95Z" style="fill: #d3d3d3;"/>
        <path d="M29.39,59.76h-11.62V.81h12.46l27.2,42.19V.81h11.62v58.95h-12.46L29.39,17.57v42.19Z" style="fill: #d3d3d3;"/>
        <path d="M102.65,59.76h-11.62V11.17h-19.28V.81h50.19v10.36h-19.28v48.59Z" style="fill: #d3d3d3;"/>
        <path d="M167.15,59.76h-42.53V.81h41.77v10.36h-30.23v13.47h27.62v10.19h-27.62v14.48h30.99v10.44Z" style="fill: #d3d3d3;"/>
        <path d="M170.52,59.76V.81h29.89c3.71,0,7,.72,9.89,2.15,2.89,1.43,5.14,3.43,6.74,5.98,1.6,2.56,2.4,5.46,2.4,8.72,0,3.71-1.25,6.95-3.75,9.73-2.5,2.78-5.8,4.65-9.89,5.6,2.13.34,3.96,1.13,5.47,2.36,1.52,1.23,2.67,2.83,3.45,4.8l7.41,19.62h-12.38l-6.48-17.68c-.39-1.12-1.07-1.99-2.02-2.61-.96-.62-2.08-.93-3.37-.93h-15.75v21.22h-11.62ZM199.49,28.43c2.64,0,4.72-.86,6.23-2.57,1.51-1.71,2.27-3.77,2.27-6.19s-.76-4.43-2.27-6.06c-1.52-1.63-3.59-2.44-6.23-2.44h-17.35v17.26h17.35Z" style="fill: #d3d3d3;"/>
        <path d="M225.76,59.76V.81h20.8c5.56,0,10.51,1.24,14.86,3.71,4.35,2.47,7.75,5.91,10.19,10.32,2.44,4.41,3.66,9.44,3.66,15.11s-1.22,10.93-3.66,15.45c-2.44,4.52-5.84,8.04-10.19,10.57-4.35,2.53-9.31,3.79-14.86,3.79h-20.8ZM246.98,53.27c4.04,0,7.64-.98,10.78-2.95,3.14-1.96,5.6-4.72,7.37-8.25,1.77-3.54,2.65-7.58,2.65-12.13,0-4.21-.88-8.04-2.65-11.49s-4.24-6.17-7.41-8.17-6.75-2.99-10.74-2.99h-14.15v45.98h14.15Z" style="fill: #d3d3d3;"/>
        <path d="M281.26,59.76h-7.33L298.18.81h7.16l24.34,58.95h-7.33l-6.9-16.84h-27.28l-6.91,16.84ZM301.8,9.82l-10.95,26.7h21.89l-10.95-26.7Z" style="fill: #d3d3d3;"/>
        <path d="M347.19,59.76h-7.07v-26.02L317.72.81h8.34l17.68,26.19L361.34.81h8.34l-22.48,32.93v26.02Z" style="fill: #d3d3d3;"/>
      </g>
      <g>
        <path d="M433.5,25.39c-1.52,2.39-3.34,4.38-5.47,5.98-2.13,1.6-5.02,3.44-8.67,5.52-3.2,1.85-5.77,3.47-7.7,4.84-1.94,1.38-3.55,3.03-4.84,4.97-1.29,1.94-1.94,4.17-1.94,6.69h30.06v6.48h-37.56v-5.56c0-3.59.8-6.71,2.4-9.35,1.6-2.64,3.54-4.83,5.81-6.57,2.27-1.74,5.29-3.71,9.05-5.9,3.2-1.91,5.7-3.51,7.5-4.8,1.79-1.29,3.3-2.83,4.5-4.63,1.21-1.8,1.81-3.85,1.81-6.15,0-3.14-1.04-5.67-3.12-7.58-2.08-1.91-4.86-2.86-8.34-2.86-3.87,0-7.07,1.22-9.6,3.66-2.53,2.44-3.82,5.94-3.87,10.48h-7.41c.23-4.38,1.26-8.11,3.12-11.2,1.85-3.09,4.32-5.43,7.41-7.03,3.09-1.6,6.57-2.4,10.44-2.4s6.97.7,9.81,2.1c2.83,1.4,5.02,3.4,6.57,5.98,1.54,2.58,2.32,5.53,2.32,8.84s-.76,6.08-2.27,8.46Z" style="fill: #d3d3d3;"/>
        <path d="M449.62,57.05c-3.4-2.5-6.01-6.05-7.83-10.65-1.83-4.6-2.74-9.99-2.74-16.17s.91-11.45,2.74-16c1.82-4.55,4.43-8.05,7.83-10.53,3.4-2.47,7.37-3.7,11.92-3.7s8.52,1.23,11.92,3.7c3.4,2.47,6.01,5.98,7.83,10.53,1.82,4.55,2.74,9.88,2.74,16s-.91,11.57-2.74,16.17c-1.83,4.6-4.44,8.15-7.83,10.65-3.4,2.5-7.37,3.75-11.92,3.75s-8.52-1.25-11.92-3.75ZM469.58,51.37c2.27-1.96,4.04-4.77,5.3-8.42,1.26-3.65,1.89-7.89,1.89-12.72s-.63-8.95-1.89-12.55c-1.26-3.59-3.03-6.36-5.3-8.29-2.27-1.94-4.96-2.91-8.04-2.91s-5.77.97-8.04,2.91c-2.27,1.94-4.04,4.7-5.3,8.29-1.26,3.59-1.89,7.78-1.89,12.55s.63,9.07,1.89,12.72c1.26,3.65,3.03,6.46,5.3,8.42,2.27,1.97,4.95,2.95,8.04,2.95s5.77-.98,8.04-2.95Z" style="fill: #d3d3d3;"/>
        <path d="M523.35,25.39c-1.52,2.39-3.34,4.38-5.47,5.98-2.13,1.6-5.02,3.44-8.67,5.52-3.2,1.85-5.77,3.47-7.7,4.84-1.94,1.38-3.55,3.03-4.84,4.97-1.29,1.94-1.94,4.17-1.94,6.69h30.06v6.48h-37.56v-5.56c0-3.59.8-6.71,2.4-9.35,1.6-2.64,3.54-4.83,5.81-6.57s5.29-3.71,9.05-5.9c3.2-1.91,5.7-3.51,7.5-4.8,1.79-1.29,3.3-2.83,4.5-4.63s1.81-3.85,1.81-6.15c0-3.14-1.04-5.67-3.12-7.58-2.08-1.91-4.86-2.86-8.34-2.86-3.87,0-7.07,1.22-9.6,3.66-2.53,2.44-3.82,5.94-3.87,10.48h-7.41c.23-4.38,1.26-8.11,3.12-11.2,1.85-3.09,4.32-5.43,7.41-7.03,3.09-1.6,6.57-2.4,10.44-2.4s6.97.7,9.81,2.1c2.83,1.4,5.02,3.4,6.57,5.98,1.54,2.58,2.32,5.53,2.32,8.84s-.76,6.08-2.27,8.46Z" style="fill: #d3d3d3;"/>
        <path d="M559.9,59.87h-7.07v-14.74h-29.22v-6.32L552.74.93h7.16v37.73h10.36v6.48h-10.36v14.74ZM552.82,10.78l-21.47,27.87h21.47V10.78Z" style="fill: #d3d3d3;"/>
      </g>
    </g>
  </g>
</svg>