<?xml version="1.0" encoding="UTF-8"?>
<svg id="uuid-2ccccccc-690d-481c-a3e2-9370d93ccc0f" data-name="Capa_2" xmlns="http://www.w3.org/2000/svg" viewBox="0 0 402.84 402.32">
  <g id="uuid-2f08b1aa-31cd-4623-85f6-fd3189c7f6df" data-name="Capa_1">
    <g>
      <path d="M201.34,402.32c-.8,0-4.32-.03-8.83-.18-9.58-.34-16.72-8.96-15.26-18.43h0c1.24-8.02,8.29-13.83,16.4-13.55,3.26.11,6.14.16,7.76.17,93.4,0,169.44-76.04,169.44-169.5,0-88.57-68.28-161.49-154.96-168.89-8.24-.7-14.54-7.66-14.54-15.93h0c0-9.43,8.1-16.75,17.49-15.94,102.95,8.89,184.02,95.53,184.02,200.75,0,111.11-90.39,201.5-201.5,201.5Z" style="fill: #fcf6cc;"/>
      <g>
        <circle cx="16.17" cy="215.55" r="15.67" style="fill: #fcf6cc;"/>
        <path d="M16.15,231.72c-3.84,0-7.51-1.35-10.46-3.87-3.29-2.8-5.29-6.72-5.63-11.02-.34-4.31,1.01-8.49,3.81-11.78,2.8-3.29,6.72-5.29,11.02-5.63l.04.5-.04-.5c8.89-.71,16.7,5.95,17.4,14.84.71,8.89-5.95,16.7-14.84,17.4-.44.04-.88.05-1.31.05ZM16.18,200.38c-.4,0-.81.02-1.22.05-4.04.32-7.71,2.2-10.34,5.28s-3.9,7.01-3.58,11.05c.32,4.04,2.2,7.71,5.28,10.34,3.08,2.63,7.01,3.89,11.05,3.58,8.34-.67,14.58-7.99,13.92-16.33-.63-7.93-7.29-13.97-15.11-13.97Z" style="fill: #fcf6cc;"/>
      </g>
      <g>
        <circle cx="31.79" cy="276.13" r="15.67" style="fill: #fcf6cc;"/>
        <path d="M31.77,292.3c-3.84,0-7.51-1.35-10.46-3.87-3.29-2.8-5.29-6.72-5.63-11.02-.34-4.31,1.01-8.49,3.81-11.78s6.72-5.29,11.02-5.63c8.88-.72,16.7,5.95,17.4,14.83.34,4.31-1.01,8.49-3.81,11.78s-6.72,5.29-11.02,5.63c-.44.04-.88.05-1.31.05ZM31.81,260.96c-.4,0-.81.02-1.22.05-4.04.32-7.71,2.2-10.34,5.28-2.63,3.08-3.9,7.01-3.58,11.05.32,4.04,2.2,7.71,5.28,10.34,3.08,2.63,7.01,3.9,11.05,3.58,4.04-.32,7.71-2.2,10.34-5.28s3.9-7.01,3.58-11.05c-.63-7.93-7.29-13.97-15.11-13.97Z" style="fill: #fcf6cc;"/>
      </g>
      <g>
        <circle cx="66.41" cy="328.54" r="15.67" style="fill: #fcf6cc;"/>
        <path d="M66.39,344.71c-8.34,0-15.43-6.43-16.11-14.89-.34-4.31,1.01-8.49,3.81-11.78,2.8-3.29,6.72-5.29,11.02-5.63h0c4.31-.34,8.49,1.01,11.77,3.81,3.29,2.8,5.29,6.72,5.63,11.02.34,4.31-1.01,8.49-3.81,11.78s-6.72,5.29-11.02,5.63c-.43.04-.87.05-1.3.05ZM65.2,313.41c-4.04.32-7.71,2.2-10.34,5.28s-3.9,7.01-3.58,11.05c.66,8.34,8,14.58,16.33,13.92,4.04-.32,7.71-2.2,10.34-5.28,2.63-3.08,3.9-7.01,3.58-11.05-.32-4.04-2.2-7.71-5.28-10.34-3.08-2.63-7-3.89-11.05-3.58h0Z" style="fill: #fcf6cc;"/>
      </g>
      <g>
        <circle cx="116.84" cy="366.09" r="15.67" style="fill: #fcf6cc;"/>
        <path d="M116.82,382.26c-3.84,0-7.51-1.35-10.46-3.87-3.29-2.8-5.29-6.72-5.63-11.02-.71-8.89,5.95-16.7,14.84-17.4h0c8.88-.73,16.7,5.95,17.4,14.84.34,4.31-1.01,8.49-3.81,11.78s-6.72,5.29-11.02,5.63c-.44.04-.88.05-1.31.05ZM115.64,350.97c-8.34.67-14.58,7.99-13.92,16.33.32,4.04,2.2,7.71,5.28,10.34,3.08,2.63,7.01,3.9,11.05,3.58,4.04-.32,7.71-2.2,10.34-5.28,2.63-3.08,3.9-7.01,3.58-11.05-.66-8.34-7.99-14.57-16.33-13.92h0Z" style="fill: #fcf6cc;"/>
      </g>
      <g>
        <g>
          <circle cx="21.52" cy="153.18" r="15.67" style="fill: #fcf6cc;"/>
          <path d="M21.51,169.35c-8.29,0-15.37-6.36-16.1-14.77-.37-4.3.95-8.5,3.73-11.8s6.68-5.34,10.98-5.71c4.3-.38,8.5.95,11.8,3.73s5.34,6.68,5.71,10.98-.95,8.49-3.73,11.8c-2.78,3.31-6.68,5.34-10.98,5.71-.47.04-.95.06-1.41.06ZM21.55,138.01c-.45,0-.89.02-1.34.06-4.04.35-7.7,2.25-10.3,5.36-2.61,3.1-3.85,7.04-3.5,11.07.73,8.33,8.1,14.52,16.43,13.8,4.04-.35,7.7-2.25,10.3-5.36,2.61-3.1,3.85-7.04,3.5-11.07s-2.25-7.7-5.36-10.3c-2.76-2.32-6.17-3.56-9.73-3.56Z" style="fill: #fcf6cc;"/>
        </g>
        <g>
          <circle cx="46.97" cy="95.77" r="15.67" transform="translate(-52.01 135.53) rotate(-85.76)" style="fill: #fcf6cc;"/>
          <path d="M46.95,111.94c-3.79,0-7.43-1.32-10.37-3.79-3.31-2.78-5.34-6.68-5.71-10.98s.95-8.5,3.73-11.8c2.78-3.31,6.68-5.34,10.98-5.71h0c4.3-.38,8.49.95,11.8,3.73,3.31,2.78,5.34,6.68,5.71,10.98.77,8.88-5.83,16.74-14.71,17.51-.48.04-.96.06-1.43.06ZM47,80.6c-.45,0-.89.02-1.34.06-4.04.35-7.7,2.25-10.3,5.36-2.61,3.1-3.85,7.04-3.5,11.07.35,4.04,2.25,7.7,5.36,10.3,3.1,2.61,7.04,3.85,11.07,3.5,8.33-.73,14.52-8.1,13.8-16.43-.35-4.04-2.25-7.7-5.36-10.3-2.76-2.32-6.17-3.56-9.73-3.56Z" style="fill: #fcf6cc;"/>
        </g>
        <g>
          <circle cx="90.51" cy="50.38" r="15.67" transform="translate(-4.03 8.04) rotate(-4.97)" style="fill: #fcf6cc;"/>
          <path d="M90.48,66.56c-3.79,0-7.43-1.32-10.37-3.79-3.31-2.78-5.34-6.68-5.71-10.98s.95-8.5,3.73-11.8c2.78-3.31,6.68-5.34,10.98-5.71,4.3-.37,8.5.95,11.8,3.73s5.34,6.68,5.71,10.98-.95,8.5-3.73,11.8c-2.78,3.31-6.68,5.34-10.98,5.71-.48.04-.96.06-1.43.06ZM90.53,35.21c-.45,0-.89.02-1.34.06-4.04.35-7.7,2.25-10.3,5.36-2.61,3.1-3.85,7.04-3.5,11.07.35,4.04,2.25,7.7,5.36,10.3,3.1,2.61,7.04,3.85,11.07,3.5,4.04-.35,7.7-2.25,10.3-5.36,2.61-3.1,3.85-7.04,3.5-11.07s-2.25-7.7-5.36-10.3c-2.76-2.32-6.17-3.56-9.73-3.56Z" style="fill: #fcf6cc;"/>
        </g>
        <g>
          <circle cx="146.73" cy="21.88" r="15.67" style="fill: #fcf6cc;"/>
          <path d="M146.72,38.05c-8.29,0-15.37-6.36-16.1-14.77-.37-4.3.95-8.5,3.73-11.8,2.78-3.31,6.68-5.34,10.98-5.71h0c4.3-.38,8.5.95,11.8,3.73,3.31,2.78,5.34,6.68,5.71,10.98s-.95,8.5-3.73,11.8c-2.78,3.31-6.68,5.34-10.98,5.71-.47.04-.95.06-1.41.06ZM145.42,6.76c-4.04.35-7.7,2.25-10.3,5.36-2.61,3.1-3.85,7.04-3.5,11.07.73,8.33,8.1,14.52,16.43,13.8,8.33-.73,14.52-8.1,13.8-16.43-.35-4.04-2.25-7.7-5.36-10.3-3.1-2.61-7.04-3.85-11.07-3.5h0Z" style="fill: #fcf6cc;"/>
        </g>
      </g>
    </g>
  </g>
</svg>