<?xml version="1.0" encoding="UTF-8"?>
<svg id="uuid-b08ab7cf-0341-4ed6-8be4-2233784b86ca" data-name="Capa 2" xmlns="http://www.w3.org/2000/svg" viewBox="0 0 481.3 162.85">
  <g id="uuid-ab0ac095-6a17-4f93-8dc2-24b88ff68fdd" data-name="Capa 1">
    <g>
      <path d="M105.53,99.3l-.27,18.57v22.15c0,5.32.14,8.67.41,10.04.55,1.74,1.74,2.61,3.58,2.61,1.01,0,2.89-.28,5.64-.83,3.85-.73,7.2-2.29,10.04-4.68,1.65-1.65,3.26-3.3,4.82-4.95-1.01,5.05-2.16,11.92-3.44,20.64-3.3-.18-7.98-.18-14.03,0h-27.79c1.1-2.29,1.79-4.59,2.06-6.88.64-3.94.96-19.35.96-46.22v-26.14c0-7.79-.87-13.71-2.61-17.75h23.39c-.46.83-.92,1.7-1.38,2.61-.46.92-.74,2.16-.83,3.71-.09.83-.28,9.86-.55,27.1" style="fill: #fcf6cc;"/>
      <path d="M179.96,104.11l3.71,19.54c4.58,24.21,8.85,37.28,12.79,39.21h-26.83c1.2-1.96,1.74-4.25,1.55-6.54-.26-3.2-.74-7.9-1.41-14.1h-18.02c-1.19,6.04-1.79,10.6-1.79,13.67,0,3.35.69,5.67,2.06,6.97-.92-.09-2.71-.09-5.36,0h-17.2c2.48-1.38,4.45-4.68,5.92-9.9,1.1-3.58,3.44-14.03,7.02-31.37l3.85-18.43c3.76-17.98,5.64-28.15,5.64-30.54,0-3.67-1.29-5.96-3.85-6.88h31.5c-3.58,1.29-5.37,3.95-5.37,7.98,0,2.29.6,6.19,1.79,11.69,2.38,11.28,3.71,17.52,3.99,18.71M154.23,124.06h12.79l-6.6-37.69-6.19,37.69Z" style="fill: #fcf6cc;"/>
      <path d="M222.35,65.73c5.47.15,23.27,0,23.27,0-.72,2.62-4.01,9.04-5.91,16.28-1-.94-1.86-1.76-2.58-2.44-3.37-3.18-7.73-5.19-12.36-5.42-.04,0-.08,0-.12,0-2.98-.09-5.56.81-7.73,2.71-2.62,2.26-3.93,5.52-3.93,9.77,0,5.07,2.12,9.13,6.38,12.21,4.43,2.62,8.91,5.2,13.43,7.73,10.85,6.51,16.28,14.83,16.28,24.96,0,9.5-2.58,16.96-7.73,22.38-5.52,5.79-13.43,8.68-23.74,8.68-5.88,0-10.85-1.67-14.92-5.02-4.52-3.71-7.05-8.68-7.6-14.92.09-4.07.95-7.28,2.58-9.63,1.14-1.71,2.35-2.65,3.64-2.82.92-.12,1.85.52,1.78,1.45-.04.61-.4,1.34-1.08,2.19-.27,1.08-.41,2.17-.41,3.25,0,3.71,1.27,6.99,3.8,9.83,2.53,2.85,5.2,4.36,8,4.54,5.52.36,9.83-.83,12.95-3.59,3.12-2.76,4.68-6.76,4.68-12,0-5.79-2.76-11.03-8.27-15.73-.09-.09-4.75-2.94-13.97-8.55-6.6-3.98-10.72-9.49-12.34-16.55-1.08-4.97-.86-9.77.68-14.38,3.89-11.67,12.3-15.28,25.23-14.92" style="fill: #fcf6cc;"/>
      <path d="M273.49,102.05v20.91c0,8.53.09,15.5.27,21.46.28,8.07,1.24,14.12,2.89,18.16h-22.15c1.19-3.48,1.88-9.49,2.06-18.02.09-5.23.14-12.47.14-22.29l-.28-41.27c0-5.87-.78-10.87-2.34-15,1.1-.09,2.93-.09,5.5,0h16.65c-.55,1.1-1.24,3.62-2.06,7.57-.46,4.86-.69,14.35-.69,28.48" style="fill: #fcf6cc;"/>
      <path d="M313.16,65.75h16.34c-.81,2.71-2.13,7.92-3.93,14.35-1.9-3.35-4.84-5.02-8.82-5.02-6.24,0-10.81,4.48-13.7,13.43-1.99,6.06-2.98,12.84-2.98,20.35,0,13.57,1.13,23.65,3.39,30.26,3.07,8.95,8.64,13.52,16.69,13.7,3.26.09,6.11-.9,8.55-2.98-.63,2.44-1.31,6.2-2.04,11.26-3.62.99-7.55,1.49-11.8,1.49-3.71,0-7.19-.5-10.45-1.49-8.5-2.53-14.65-8.14-18.45-16.82-2.98-6.51-4.48-17.73-4.48-33.65,0-14.29,2.22-25.14,6.65-32.56,5.61-9.23,12.1-12.31,25.04-12.31" style="fill: #fcf6cc;"/>
      <path d="M53.11.28h27.39c-1.36,4.55-3.56,13.28-6.59,24.04-3.18-5.61-8.11-8.41-14.78-8.41-10.46,0-18.12,7.5-22.97,22.51-3.34,10.16-5,21.53-5,34.11,0,22.74,1.89,39.64,5.68,50.71,5.15,15.01,14.47,22.66,27.97,22.97,5.46.15,10.23-1.51,14.33-5-1.06,4.09-2.2,10.38-3.41,18.87-6.06,1.67-12.66,2.5-19.78,2.5-6.22,0-12.05-.83-17.51-2.5-14.25-4.24-24.56-13.64-30.93-28.2C2.5,120.97,0,102.17,0,75.49c0-23.95,3.71-42.14,11.14-54.57C20.54,5.45,31.43.28,53.11.28" style="fill: #fcf6cc;"/>
      <path d="M387.75,112.8c0,14.81-1.7,26.05-5.09,33.72-4.65,10.7-12.86,16.06-24.65,16.06s-20.55-5.71-24.92-17.13c-2.68-6.96-4.02-17.44-4.02-31.44,0-11.86,1.38-21.5,4.15-28.9,4.82-12.93,13.22-19.4,25.19-19.4,12.6,0,21.12,6.16,25.59,18.47,2.5,6.69,3.75,16.24,3.75,28.63M368.46,113.4c0-10.9-.85-19.92-2.55-27.07-1.97-7.77-4.6-11.66-7.91-11.66-2.59,0-4.82,1.79-6.7,5.36-1.88,3.57-2.95,8.49-3.22,14.74-.63,12.51-.94,19.03-.94,19.56,0,12.86,1.12,22.64,3.35,29.34,1.88,5.99,4.42,8.98,7.64,8.98,3.57,0,5.94-1.7,7.1-5.09.8-2.41,1.56-7.99,2.28-16.75.62-7.68.94-13.49.94-17.42" style="fill: #fcf6cc;"/>
      <path d="M205.98,17.9l-.14,9.33v11.12c0,2.67.07,4.35.21,5.04.28.88.87,1.31,1.8,1.31.51,0,1.45-.14,2.83-.41,1.93-.37,3.62-1.15,5.04-2.35.83-.83,1.63-1.66,2.42-2.49-.51,2.53-1.08,5.99-1.73,10.36-1.66-.09-4.01-.09-7.05,0h-13.95c.55-1.15.9-2.3,1.04-3.45.32-1.98.48-9.72.48-23.21v-13.12c0-3.91-.44-6.88-1.31-8.91h11.74c-.23.41-.46.85-.69,1.31-.23.46-.37,1.08-.41,1.86-.05.41-.14,4.95-.28,13.61" style="fill: #fcf6cc;"/>
      <path d="M248.12,24.57c0,7.64-.87,13.43-2.62,17.38-2.4,5.52-6.63,8.28-12.71,8.28s-10.59-2.94-12.85-8.83c-1.38-3.59-2.07-8.99-2.07-16.21,0-6.12.71-11.08,2.14-14.9,2.49-6.67,6.82-10,12.99-10,6.49,0,10.89,3.17,13.19,9.52,1.29,3.45,1.93,8.37,1.93,14.76M238.17,24.88c0-5.62-.44-10.27-1.31-13.95-1.01-4.01-2.37-6.01-4.08-6.01-1.34,0-2.49.92-3.45,2.76-.97,1.84-1.52,4.38-1.66,7.6-.32,6.45-.48,9.81-.48,10.08,0,6.63.57,11.67,1.73,15.13.97,3.09,2.28,4.63,3.94,4.63,1.84,0,3.06-.87,3.66-2.62.41-1.24.8-4.12,1.17-8.64.32-3.96.48-6.95.48-8.98" style="fill: #fcf6cc;"/>
      <path d="M436.45.04c9.18.26,39.05,0,39.05,0-1.22,4.4-6.73,15.18-9.91,27.32-1.68-1.58-3.13-2.95-4.34-4.09-5.65-5.34-12.97-8.71-20.74-9.1-.07,0-.13,0-.2,0-5.01-.15-9.33,1.37-12.97,4.55-4.4,3.79-6.6,9.26-6.6,16.39,0,8.5,3.56,15.33,10.7,20.49,7.43,4.4,14.95,8.73,22.54,12.97,18.21,10.93,27.32,24.89,27.32,41.89,0,15.94-4.33,28.46-12.98,37.56-9.26,9.71-22.54,14.57-39.84,14.57-9.87,0-18.21-2.81-25.04-8.42-7.59-6.22-11.84-14.57-12.75-25.04.15-6.83,1.59-12.21,4.33-16.16,1.91-2.87,3.95-4.45,6.11-4.73,1.55-.2,3.1.87,2.99,2.43-.07,1.02-.68,2.25-1.81,3.67-.46,1.82-.68,3.64-.68,5.46,0,6.22,2.12,11.72,6.37,16.5,4.25,4.78,8.73,7.33,13.43,7.63,9.26.61,16.5-1.4,21.74-6.03,5.24-4.63,7.85-11.34,7.85-20.15,0-9.71-4.63-18.51-13.89-26.41-.15-.15-7.97-4.93-23.45-14.34-11.08-6.68-17.98-15.93-20.72-27.77-1.82-8.34-1.44-16.39,1.14-24.13C400.63,5.51,414.75-.57,436.45.04" style="fill: #fcf6cc;"/>
      <path d="M263.29.01c2.84.08,12.07,0,12.07,0-.38,1.36-2.08,4.69-3.06,8.44-.52-.49-.97-.91-1.34-1.26-1.75-1.65-4.01-2.69-6.41-2.81-.02,0-.04,0-.06,0-1.55-.05-2.88.42-4.01,1.41-1.36,1.17-2.04,2.86-2.04,5.06,0,2.63,1.1,4.74,3.31,6.33,2.3,1.36,4.62,2.7,6.96,4.01,5.63,3.38,8.44,7.69,8.44,12.94,0,4.92-1.34,8.79-4.01,11.6-2.86,3-6.96,4.5-12.31,4.5-3.05,0-5.63-.87-7.74-2.6-2.35-1.92-3.66-4.5-3.94-7.74.05-2.11.49-3.77,1.34-4.99.59-.89,1.22-1.37,1.89-1.46.48-.06.96.27.92.75-.02.32-.21.69-.56,1.13-.14.56-.21,1.13-.21,1.69,0,1.92.66,3.62,1.97,5.1,1.31,1.48,2.7,2.26,4.15,2.36,2.86.19,5.1-.43,6.72-1.86,1.62-1.43,2.43-3.5,2.43-6.22,0-3-1.43-5.72-4.29-8.16-.05-.05-2.46-1.52-7.24-4.43-3.42-2.06-5.56-4.92-6.4-8.58-.56-2.58-.45-5.06.35-7.46,2.02-6.05,6.38-7.92,13.08-7.74" style="fill: #fcf6cc;"/>
      <path d="M156.07,62.92l2.78-17.81h11s-5.95,18.16-5.79,17.81h-7.99Z" style="fill: #fcf6cc;"/>
    </g>
  </g>
</svg>