<?xml version="1.0" encoding="UTF-8"?>
<svg id="uuid-c804b1c4-39f5-4246-aa59-280967c52898" data-name="Capa 2" xmlns="http://www.w3.org/2000/svg" xmlns:xlink="http://www.w3.org/1999/xlink" viewBox="0 0 69.03 69.03">
  <defs>
    <filter id="uuid-cba3ae99-db3f-4637-aeb0-bd820984a783" data-name="drop-shadow-1" x="-10.47" y="-10.57" width="130" height="130" filterUnits="userSpaceOnUse">
      <feOffset dx="20" dy="20"/>
      <feGaussianBlur result="uuid-96d1b38d-9b58-47ab-be42-6d802d9cd7db" stdDeviation="10"/>
      <feFlood flood-color="#000" flood-opacity=".2"/>
      <feComposite in2="uuid-96d1b38d-9b58-47ab-be42-6d802d9cd7db" operator="in"/>
      <feComposite in="SourceGraphic"/>
    </filter>
  </defs>
  <g id="uuid-a6b7c5a1-a747-4d9e-947f-86bf26e7d718" data-name="Capa 1">
    <g style="filter: url(#uuid-cba3ae99-db3f-4637-aeb0-bd820984a783);">
      <path d="M48.83,31.47l-19.42-11.21c-2.26-1.3-5.08.33-5.08,2.93v22.43c0,2.61,2.82,4.24,5.08,2.93l19.42-11.21c2.26-1.3,2.26-4.57,0-5.87Z" style="fill: #fcf6cc;"/>
      <path d="M34.51,69.03C15.48,69.03,0,53.54,0,34.51S15.48,0,34.51,0s34.51,15.48,34.51,34.51-15.48,34.51-34.51,34.51ZM34.51,5.09c-16.22,0-29.42,13.2-29.42,29.42s13.2,29.42,29.42,29.42,29.42-13.2,29.42-29.42S50.74,5.09,34.51,5.09Z" style="fill: #fcf6cc;"/>
    </g>
  </g>
</svg>