<?xml version="1.0" encoding="UTF-8"?>
<svg id="uuid-d85b679b-93a4-4417-8e99-26198168eff4" data-name="Capa 2" xmlns="http://www.w3.org/2000/svg" viewBox="0 0 33.49 35.04">
  <g id="uuid-711c6582-ca07-4baf-b97c-14fc673552c0" data-name="Capa 1">
    <g>
      <path d="M31.84,19.07H1.65c-.91,0-1.65-.74-1.65-1.65v-6.24c0-.91.74-1.65,1.65-1.65h30.19c.91,0,1.65.74,1.65,1.65v6.24c0,.91-.74,1.65-1.65,1.65ZM1.65,11.18v6.24h30.19v-6.24H1.65Z" style="fill: #e9e2b4;"/>
      <path d="M30.52,35.04H2.96c-.91,0-1.65-.74-1.65-1.65v-15.97h30.86v15.97c0,.91-.74,1.65-1.65,1.65ZM2.96,19.07v14.32h27.56v-14.32H2.96Z" style="fill: #e9e2b4;"/>
      <path d="M16.74,11.18h-.75l-.07-.75c-.02-.24-.49-5.85,2.16-8.74,1.02-1.12,2.36-1.68,3.97-1.68,3.18,0,4.84,2.22,4.84,4.42,0,1.72-.93,3.41-2.55,4.64-1.84,1.39-4.46,2.12-7.6,2.12ZM22.05,1.65c-1.14,0-2.04.38-2.75,1.15-1.65,1.81-1.79,5.2-1.77,6.72,3.02-.13,4.82-1.02,5.82-1.77,1.2-.91,1.89-2.12,1.89-3.32,0-1.38-.99-2.78-3.19-2.78Z" style="fill: #e9e2b4;"/>
      <path d="M17.38,11.18h-.75c-3.13,0-5.76-.73-7.6-2.12-1.62-1.22-2.55-2.91-2.55-4.64,0-2.2,1.66-4.42,4.84-4.42,1.61,0,2.94.57,3.97,1.68,2.65,2.89,2.18,8.51,2.16,8.74l-.07.75ZM11.32,1.65c-2.21,0-3.19,1.39-3.19,2.78,0,1.2.69,2.41,1.89,3.32,1,.75,2.8,1.64,5.82,1.77.03-1.52-.12-4.92-1.77-6.72-.71-.77-1.61-1.15-2.75-1.15Z" style="fill: #e9e2b4;"/>
      <rect x="15.84" y="18.25" width="1.65" height="15.97" style="fill: #e9e2b4;"/>
    </g>
  </g>
</svg>