<?xml version="1.0" encoding="UTF-8"?>
<svg id="uuid-0778e29b-016f-4046-bb77-89d18b674fe7" data-name="Capa 2" xmlns="http://www.w3.org/2000/svg" viewBox="0 0 21.8 45">
  <g id="uuid-32c51068-a10e-4026-9bf1-06731c2bd31f" data-name="Capa 1">
    <g>
      <path d="M10.9,32.11c-2.91,0-5.65-1.13-7.71-3.19-2.06-2.06-3.19-4.79-3.19-7.71v-10.32c0-2.91,1.13-5.65,3.19-7.71C5.25,1.13,7.99,0,10.9,0s5.65,1.13,7.71,3.19c2.06,2.06,3.19,4.79,3.19,7.71v10.32c0,2.91-1.13,5.65-3.19,7.71-2.06,2.06-4.79,3.19-7.71,3.19ZM10.9,1.55C5.74,1.55,1.55,5.74,1.55,10.9v10.32c0,5.15,4.19,9.35,9.35,9.35h0c5.15,0,9.35-4.19,9.35-9.35v-10.32c0-5.15-4.19-9.35-9.35-9.35Z" style="fill: #fcf6cc;"/>
      <path d="M10.9,12.35h0c-.75,0-1.36-.61-1.36-1.36v-3.7c0-.75.61-1.36,1.36-1.36h0c.75,0,1.36.61,1.36,1.36v3.7c0,.75-.61,1.36-1.36,1.36Z" style="fill: #fcf6cc;"/>
      <path d="M10.88,40.46l-7.73-5.54c-.35-.25-.43-.73-.18-1.08.25-.35.73-.43,1.08-.18l6.83,4.89,6.83-4.89c.35-.25.83-.17,1.08.18.25.35.17.83-.18,1.08l-7.73,5.54Z" style="fill: #fcf6cc;"/>
      <path d="M10.88,45l-7.73-5.54c-.35-.25-.43-.73-.18-1.08.25-.35.73-.43,1.08-.18l6.83,4.89,6.83-4.89c.35-.25.83-.17,1.08.18.25.35.17.83-.18,1.08l-7.73,5.54Z" style="fill: #fcf6cc;"/>
    </g>
  </g>
</svg>