<?xml version="1.0" encoding="UTF-8"?>
<svg id="uuid-e3584ab4-aa57-49f3-be6f-b92950bd7db5" data-name="Capa 2" xmlns="http://www.w3.org/2000/svg" viewBox="0 0 84.02 26.14">
  <g id="uuid-185227dd-1517-4fee-8634-af48302d2bdf" data-name="Capa 1">
    <g>
      <path d="M13.07,0C5.85,0,0,5.85,0,13.07s5.85,13.07,13.07,13.07,13.07-5.85,13.07-13.07S20.29,0,13.07,0ZM19.07,18.85c-.24.38-.74.51-1.12.27-3.07-1.88-6.93-2.3-11.48-1.26-.44.1-.88-.17-.98-.61-.1-.44.17-.88.61-.98,4.98-1.14,9.25-.65,12.7,1.46.38.24.51.74.27,1.12h0ZM20.67,15.29c-.3.48-.92.63-1.4.33-3.51-2.16-8.87-2.78-13.03-1.52-.54.16-1.11-.14-1.27-.68-.16-.54.14-1.11.68-1.27,4.75-1.44,10.65-.74,14.68,1.74.48.29.63.92.33,1.4h0ZM20.8,11.59c-4.21-2.5-11.16-2.73-15.19-1.51-.65.2-1.33-.17-1.52-.81-.2-.65.17-1.33.81-1.53,4.62-1.4,12.29-1.13,17.14,1.75.58.34.77,1.09.43,1.67-.34.58-1.09.77-1.67.43Z" style="fill: #fdf7cd;"/>
      <path d="M35.56,12.07c-2.26-.54-2.66-.92-2.66-1.71,0-.75.71-1.25,1.76-1.25s2.03.38,3.08,1.17c.03.02.07.03.11.03.04,0,.07-.03.1-.06l1.1-1.55c.05-.06.03-.15-.03-.2-1.26-1.01-2.68-1.5-4.33-1.5-2.44,0-4.14,1.46-4.14,3.55,0,2.24,1.47,3.04,4.01,3.65,2.16.5,2.52.91,2.52,1.66,0,.83-.74,1.34-1.92,1.34-1.32,0-2.39-.44-3.59-1.48-.03-.03-.07-.04-.11-.04-.04,0-.08.02-.1.05l-1.24,1.47c-.05.06-.05.15.01.2,1.4,1.25,3.12,1.91,4.98,1.91,2.63,0,4.32-1.43,4.32-3.66,0-1.87-1.12-2.91-3.87-3.58h0Z" style="fill: #fdf7cd;"/>
      <path d="M45.38,9.84h0c-1.14,0-2.07.45-2.84,1.37v-1.03c0-.08-.07-.15-.15-.15h-2.02c-.08,0-.15.07-.15.15v11.49c0,.08.07.15.15.15h2.02c.08,0,.15-.07.15-.15v-3.63c.77.86,1.7,1.29,2.84,1.29,2.11,0,4.26-1.63,4.26-4.74,0-3.11-2.14-4.74-4.25-4.74ZM44.91,17.27c-1.38,0-2.42-1.16-2.42-2.69s1.04-2.69,2.42-2.69,2.37,1.13,2.37,2.69-.98,2.69-2.37,2.69Z" style="fill: #fdf7cd;"/>
      <path d="M55.12,9.84c-2.72,0-4.86,2.1-4.86,4.78s2.12,4.72,4.82,4.72,4.87-2.09,4.87-4.76-2.13-4.74-4.84-4.74ZM55.12,17.29c-1.45,0-2.54-1.16-2.54-2.71s1.05-2.67,2.51-2.67,2.56,1.16,2.56,2.71-1.06,2.67-2.52,2.67Z" style="fill: #fdf7cd;"/>
      <path d="M65.78,10.03h-2.22v-2.27c0-.08-.07-.15-.15-.15h-2.02c-.08,0-.15.07-.15.15v2.27h-.97c-.08,0-.15.07-.15.15v1.74c0,.08.07.15.15.15h.97v4.49c0,1.82.9,2.74,2.69,2.74.72,0,1.33-.15,1.89-.47.05-.03.07-.08.07-.13v-1.65c0-.05-.03-.1-.07-.13-.04-.03-.1-.03-.14,0-.39.2-.77.29-1.19.29-.65,0-.94-.29-.94-.95v-4.18h2.22c.08,0,.15-.07.15-.15v-1.74c0-.08-.06-.15-.15-.15h0Z" style="fill: #fdf7cd;"/>
      <path d="M73.53,10.04v-.28c0-.82.32-1.19,1.02-1.19.42,0,.76.08,1.14.21.05.01.1,0,.13-.02.04-.03.06-.07.06-.12v-1.7c0-.07-.04-.12-.1-.14-.4-.12-.91-.24-1.68-.24-1.87,0-2.85,1.05-2.85,3.04v.43h-.97c-.08,0-.15.07-.15.15v1.75c0,.08.07.15.15.15h.97v6.93c0,.08.07.15.15.15h2.02c.08,0,.15-.07.15-.15v-6.93h1.89l2.89,6.93c-.33.73-.65.87-1.09.87-.36,0-.73-.11-1.11-.32-.04-.02-.08-.02-.12-.01-.04.01-.07.04-.09.08l-.68,1.5c-.03.07,0,.15.06.19.72.39,1.36.55,2.16.55,1.49,0,2.32-.7,3.04-2.57l3.51-9.06s.01-.1-.02-.14c-.03-.04-.07-.06-.12-.06h-2.1c-.06,0-.12.04-.14.1l-2.16,6.16-2.36-6.16c-.02-.06-.08-.1-.14-.1h-3.45,0Z" style="fill: #fdf7cd;"/>
      <path d="M69.03,10.03h-2.02c-.08,0-.15.07-.15.15v8.82c0,.08.07.15.15.15h2.02c.08,0,.15-.07.15-.15v-8.82c0-.08-.07-.15-.15-.15h0,0Z" style="fill: #fdf7cd;"/>
      <path d="M68.03,6.01c-.8,0-1.45.65-1.45,1.45s.65,1.45,1.45,1.45,1.45-.65,1.45-1.45-.65-1.45-1.45-1.45h0Z" style="fill: #fdf7cd;"/>
    </g>
  </g>
</svg>