<?xml version="1.0" encoding="UTF-8"?>
<svg id="uuid-2408960c-82c1-4750-b941-89fd12925be5" data-name="Capa_2" xmlns="http://www.w3.org/2000/svg" viewBox="0 0 36.86 36.87">
  <g id="uuid-f8a6fff1-bc85-44e7-a242-0c59b0aae39f" data-name="Capa_1">
    <g>
      <path d="M3.81,33.05h29.23v-14.97c0-.07.23-.55.3-.65,1-1.56,3.26-.96,3.52.81v15.8c-.24,1.6-1.44,2.72-3.06,2.83H2.97c-1.59-.13-2.8-1.33-2.97-2.9v-15.8c.32-1.69,2.48-2.27,3.48-.79.08.11.33.61.33.7v14.97Z" style="fill: #e9e2b4;"/>
      <path d="M20.34,6.52v21.17c0,.09-.25.59-.33.7-.8,1.18-2.48,1.12-3.22-.09-.05-.09-.27-.56-.27-.61V6.52l-4.13,4.09c-1.81,1.3-3.97-.85-2.66-2.66L17.2.48c.64-.6,1.64-.64,2.35-.12l7.59,7.59c1.3,1.81-.85,3.97-2.66,2.66l-4.13-4.09Z" style="fill: #e9e2b4;"/>
    </g>
  </g>
</svg>