<?xml version="1.0" encoding="UTF-8"?>
<svg id="uuid-2a0bf5ff-35eb-4203-a9b6-6ce5ab8f9da8" data-name="Capa_2" xmlns="http://www.w3.org/2000/svg" viewBox="0 0 38.26 38.26">
  <g id="uuid-521d2ec7-d1ca-4e8e-bdeb-57440c0ef80c" data-name="Capa_1">
    <g>
      <circle cx="19.13" cy="19.13" r="19.13" style="fill: #fff;"/>
      <path d="M20.46,7.78h3.72c.46,3.36,2.55,5.03,5.76,5.6v4.42c-1.89-.67-3.6-1.27-5.46-1.92,0,2,.03,4.07-.01,6.15-.02,1.15-.02,2.31-.25,3.43-.73,3.62-4.64,6.05-8.61,5.44-3.56-.54-6.31-4.19-6.01-7.95.28-3.5,3.64-6.63,7.15-6.64.37,0,.74.11,1.14.17v3.71c-.66.12-1.32.17-1.94.36-1.57.47-2.5,1.94-2.32,3.53.17,1.52,1.43,2.71,2.98,2.81,1.84.13,3.24-.74,3.64-2.34.15-.59.18-1.23.18-1.85.02-4.41.02-8.82.03-13.22,0-.52,0-1.04,0-1.69Z"/>
    </g>
  </g>
</svg>