<?xml version="1.0" encoding="UTF-8"?>
<svg id="uuid-e028c84f-93ed-4e64-958b-8816a405dabc" data-name="Capa_2" xmlns="http://www.w3.org/2000/svg" viewBox="0 0 24.17 27.53">
  <g id="uuid-7b741a07-9122-44ca-95fa-f05b995ed5e4" data-name="Capa_1">
    <path d="M12.91,0h4.41c.54,3.98,3.03,5.97,6.84,6.64v5.24c-2.24-.79-4.27-1.5-6.49-2.28,0,2.37.03,4.83-.01,7.3-.02,1.36-.02,2.75-.29,4.07-.87,4.29-5.51,7.18-10.22,6.46C2.94,26.78-.33,22.45.03,17.99c.33-4.16,4.32-7.86,8.49-7.88.44,0,.87.13,1.35.2v4.4c-.79.14-1.57.21-2.3.43-1.86.56-2.97,2.3-2.75,4.19.21,1.8,1.7,3.21,3.54,3.34,2.19.15,3.84-.88,4.31-2.77.18-.71.21-1.46.21-2.19.03-5.23.03-10.46.04-15.69,0-.62,0-1.24,0-2.01Z" style="fill: #e9e2b4;"/>
  </g>
</svg>