<?xml version="1.0" encoding="UTF-8"?>
<svg id="uuid-6954c70b-dedb-40ac-ad69-17a3babbd9d4" data-name="Capa 2" xmlns="http://www.w3.org/2000/svg" viewBox="0 0 34.54 34.76">
  <g id="uuid-a7af05f7-04c2-44b1-ae25-1a20153e9357" data-name="Capa 1">
    <g>
      <path d="M9.74,13.2c0-1.35.45-2.45,1.38-3.35.37-.36.83-.48,1.32-.5.26-.01.52,0,.79.03.26.02.43.18.53.4.2.46.39.92.59,1.38.27.64.54,1.29.81,1.93.12.28.13.55-.05.8-.22.29-.46.57-.7.85-.13.15-.26.3-.39.45-.18.22-.2.45-.05.7,1.3,2.19,3.07,3.84,5.47,4.77.42.16.75.09,1.03-.26.32-.41.63-.83.93-1.25.33-.45.65-.56,1.15-.32,1.05.49,2.09,1.01,3.13,1.5.36.17.36.48.33.79-.04.35-.11.69-.18,1.03-.13.59-.47,1.03-.94,1.39-.85.64-1.79,1.02-2.87.97-.69-.03-1.35-.23-2.01-.44-1.65-.54-3.21-1.24-4.59-2.32-1.53-1.21-2.82-2.63-3.93-4.22-.54-.77-1.05-1.56-1.38-2.44-.23-.62-.39-1.26-.37-1.87Z" style="fill: #e9e2b4; fill-rule: evenodd;"/>
      <path d="M34.2,13.48c-.7-3.39-2.31-6.33-4.77-8.74-1.42-1.39-3.08-2.51-4.91-3.32-1.31-.58-2.67-.99-4.06-1.21-2.26-.33-4.12-.2-5.17-.06-.5.07-1,.17-1.5.29-4.01.99-7.27,3.18-9.69,6.49-1.92,2.63-2.99,5.65-3.18,8.96-.07,1.3,0,2.61.23,3.89.35,1.94,1.03,3.8,2.03,5.52-.75,2.25-1.51,4.5-2.27,6.76l-.91,2.71,2.11-.67c2.55-.82,5.1-1.63,7.65-2.44,2.17,1.15,4.51,1.81,6.95,1.96,1.8.11,3.56-.07,5.25-.51,3.22-.85,5.97-2.52,8.18-4.95,2.74-3.03,4.22-6.66,4.38-10.8.05-1.28-.06-2.57-.32-3.86ZM30.85,18.36c-.38,3.11-1.72,5.79-3.98,7.97-1.84,1.78-4.06,2.94-6.6,3.45-.95.19-1.91.27-2.85.25-2.48-.06-4.78-.77-6.86-2.1-.15-.1-.3-.14-.46-.14-.09,0-.18.02-.27.05-1.39.45-2.78.9-4.18,1.34l.52-1.53c.28-.83.57-1.68.84-2.52.07-.21.03-.48-.1-.66-1.05-1.5-1.78-3.15-2.15-4.89-.25-1.18-.34-2.4-.27-3.6.12-1.85.58-3.57,1.39-5.11,1.92-3.67,4.94-6.02,8.96-6.98.82-.19,1.67-.3,2.6-.31,3.51-.05,6.59,1.12,9.17,3.46,2.16,1.96,3.53,4.42,4.09,7.31.25,1.32.3,2.67.14,4.01Z" style="fill: #e9e2b4; fill-rule: evenodd;"/>
    </g>
  </g>
</svg>