<?xml version="1.0" encoding="UTF-8"?>
<svg id="uuid-914bb065-7df2-41ff-abef-f3774f5f5298" data-name="Capa 2" xmlns="http://www.w3.org/2000/svg" viewBox="0 0 33.12 33.12">
  <g id="uuid-c3603222-1059-4509-becb-76ceaa528988" data-name="Capa 1">
    <g>
      <path d="M16.56,0C7.41,0,0,7.41,0,16.56s7.41,16.56,16.56,16.56,16.56-7.41,16.56-16.56S25.71,0,16.56,0ZM24.26,25.16h0s-3.54.01-3.54.01h0s-.7-.01-.7-.01l-4.69-6.69-5.88,6.69h-1.5l6.71-7.64L7.95,7.95h5.15l4.43,6.31,5.55-6.31h1.5l-6.38,7.26,6.98,9.95h-.91Z" style="fill: #e9e2b4;"/>
      <polygon points="17.36 16.16 16.69 15.21 16.69 15.21 12.36 9.04 10.22 9.04 20.77 24.09 22.92 24.09 17.36 16.16 17.36 16.16" style="fill: #e9e2b4;"/>
    </g>
  </g>
</svg>