<?xml version="1.0" encoding="UTF-8"?>
<svg id="uuid-1b9ee667-3082-4756-9ce5-5b43849b0d26" data-name="Capa_2" xmlns="http://www.w3.org/2000/svg" viewBox="0 0 30.95 21.62">
  <g id="uuid-37071d5d-ad0f-4b62-b2fe-adc5afaf47c9" data-name="Capa_1">
    <path d="M15.6.02c3.44,0,6.88-.06,10.32.02,3.06.07,4.7,1.44,4.86,4.44.21,4.17.24,8.36.03,12.52-.16,3.19-1.77,4.54-4.95,4.57-6.73.06-13.46.07-20.19,0-3.81-.04-5.26-1.21-5.5-5C-.09,12.57-.03,8.52.23,4.51.44,1.39,1.98.12,5.06.05c3.51-.09,7.03-.02,10.54-.02ZM12.37,14.82c2.88-1.5,5.46-2.85,8.36-4.36-2.94-1.52-5.55-2.87-8.36-4.31v8.68Z" style="fill: #e9e2b4;"/>
  </g>
</svg>